<svg xmlns="http://www.w3.org/2000/svg" width="28" height="17" viewBox="0 0 28 17"><path fill-rule="evenodd" clip-rule="evenodd" d="M2.67544 15.4288H25.3246C25.7932 15.4288 26.1739 15.0673 26.1739 14.6228V0.805982C26.1739 0.36154 25.7932 0 25.3246 0H2.67544C2.20708 0 1.82609 0.36154 1.82609 0.805982V14.6228C1.82609 15.0673 2.20733 15.4288 2.67544 15.4288ZM2.5541 0.805982C2.5541 0.742424 2.60846 0.690842 2.67544 0.690842H25.3246C25.3915 0.690842 25.4459 0.742424 25.4459 0.805982V14.6228C25.4459 14.6864 25.3915 14.738 25.3246 14.738H2.67544C2.60846 14.738 2.5541 14.6864 2.5541 14.6228V0.805982ZM28 16.6905V16.0455H16.5008C16.4438 16.2256 16.2701 16.3573 16.0623 16.3573H11.9379C11.7299 16.3573 11.5562 16.2253 11.4994 16.0455H0V16.6905C0 16.8614 0.146087 17 0.326149 17H27.6739C27.8539 17 28 16.8614 28 16.6905Z"></path></svg>