<svg xmlns="http://www.w3.org/2000/svg" width="34" height="32" viewBox="0 0 34 32"><path fill="#6e52dd" d="M31 11.5H31.6C32.9 11.5 34 12.6 34 14V17.9C34 19.2 32.9 20.3 31.6 20.3H31.1C30.3 22.4 29 24.3 27.3 25.8 27.3 25.8 27.2 25.9 27.2 25.9 27.2 25.9 27.2 25.9 27.2 25.9L27.2 25.9C27.2 25.9 27.1 26 27.1 26 27.1 26 27 26 27 26.1 25.6 27.3 25.5 28.7 25.5 29V30.3C25.5 31.2 24.8 32 23.8 32H18.6C17.7 32 16.9 31.2 16.9 30.3V30C16.1 30 15.3 30 14.4 29.9V30.3C14.4 31.2 13.7 32 12.7 32H7.5C6.6 32 5.9 31.3 5.8 30.5 5.8 30.4 5.8 30.4 5.8 30.4V30.3 29.9C5.8 29.2 5.5 27.3 4.1 25.8 3.1 24.8 2.2 23.4 1.4 21.8 1 20.9 0.6 19.9 0.4 19 0.4 18.9 0.4 18.9 0.4 18.9 0.4 18.9 0.3 18.9 0.3 18.9 0.1 17.9 0 17 0 16 0 12.2 1.7 8.7 4.7 6 7.7 3.4 11.7 2 15.9 2 17.6 2 19.2 2.2 20.7 2.6 21.6 1.5 23.2 0.3 25.8 0 25.9 0 25.9 0 26 0 26.7 0 27.3 0.4 27.6 0.9 27.9 1.5 27.9 2.2 27.5 2.7 26.8 3.8 26.6 4.9 26.9 5.8V5.9C28.8 7.4 30.2 9.4 31 11.5ZM31.6 18.6C32 18.6 32.3 18.2 32.3 17.8H32.3V13.9C32.3 13.5 32 13.2 31.6 13.2H30.4 30.4C30 13.2 29.7 13 29.6 12.6 28.9 10.5 27.5 8.5 25.6 7 25.4 6.8 25.3 6.6 25.3 6.3 25.3 6.3 25.3 6.3 25.3 6.3 25.3 6.3 25.3 6.3 25.3 6.3 24.9 4.9 25.2 3.3 26.1 1.9 26.1 1.8 26.1 1.8 26.1 1.8 26.1 1.7 26 1.7 26 1.7 23.6 2 22.4 3.2 21.7 4.1 21.5 4.4 21.1 4.5 20.8 4.4 19.2 3.9 17.6 3.7 15.9 3.7 8.1 3.7 1.7 9.2 1.7 16 1.7 16.8 1.8 17.7 2 18.5V18.5C2 18.6 2 18.6 2 18.6 2 18.6 2 18.6 2 18.6 2.2 19.4 2.5 20.2 2.9 21 2.9 21 2.9 21 2.9 21 2.9 21 2.9 21 2.9 21 3.6 22.5 4.4 23.7 5.3 24.6 7.2 26.5 7.5 28.9 7.5 29.9V29.9 30.3C7.5 30.3 7.5 30.3 7.5 30.3H12.7C12.7 30.3 12.8 30.3 12.8 30.3V29C12.8 28.8 12.9 28.5 13 28.4 13.2 28.2 13.5 28.1 13.7 28.2 14.4 28.3 15.2 28.3 15.9 28.3 16.5 28.3 17.1 28.3 17.6 28.2 17.7 28.2 17.7 28.2 17.7 28.2 17.9 28.2 18.1 28.3 18.3 28.4 18.5 28.6 18.6 28.8 18.6 29.1V30.3C18.6 30.3 18.6 30.3 18.6 30.3H23.8C23.8 30.3 23.8 30.3 23.8 30.3V29 29C23.8 28.4 24 26.5 25.9 24.8 25.9 24.8 25.9 24.8 25.9 24.8L26.1 24.6 26.1 24.6 26.1 24.6C27.8 23.1 29 21.2 29.7 19.2 29.8 18.8 30.1 18.6 30.5 18.6H31.6Z"></path><path fill="#6e52dd" d="M17 15.1H15C14.3 15.1 13.7 14.6 13.7 13.9 13.7 13.2 14.3 12.7 15 12.7H18.5C18.9 12.7 19.3 12.3 19.3 11.8 19.3 11.4 18.9 11 18.5 11H16.9V9.8C16.9 9.4 16.5 9 16 9 15.5 9 15.1 9.4 15.1 9.8V11H15C13.4 11 12 12.3 12 13.9 12 15.5 13.4 16.8 15 16.8H17C17.7 16.8 18.2 17.4 18.2 18.1 18.2 18.7 17.7 19.3 17 19.3H13.5C13 19.3 12.6 19.7 12.6 20.1 12.6 20.6 13 21 13.5 21H15.1V22.2C15.1 22.6 15.5 23 16 23 16.5 23 16.9 22.6 16.9 22.2V21H17C17 21 17 21 17 21 18.7 21 20 19.7 20 18.1 20 16.5 18.6 15.1 17 15.1Z"></path></svg>