<svg xmlns="http://www.w3.org/2000/svg" width="25" height="23" viewBox="0 0 25 23"><path fill-rule="evenodd" clip-rule="evenodd" d="M1.25 0H23.75C24.4403 0 25 0.551697 25 1.23214V16.8393C25 17.5197 24.4403 18.0714 23.75 18.0714H14.1667V20.5357H20C20.2301 20.5357 20.4167 20.7196 20.4167 20.9464V22.5893C20.4167 22.8161 20.2301 23 20 23H5C4.7699 23 4.58333 22.8161 4.58333 22.5893V20.9464C4.58333 20.7196 4.7699 20.5357 5 20.5357H10.8333V18.0714H1.25C0.559692 18.0714 0 17.5197 0 16.8393V1.23214C0 0.551697 0.559692 0 1.25 0ZM5.41667 22.1786H19.5833V21.3571H5.41667V22.1786ZM13.3333 20.5357H11.6667V18.0714H13.3333V20.5357ZM23.75 17.25C23.9801 17.25 24.1667 17.0661 24.1667 16.8393V1.23214C24.1667 1.00533 23.9801 0.821429 23.75 0.821429H1.25C1.0199 0.821429 0.833333 1.00533 0.833333 1.23214V16.8393C0.833333 17.0661 1.0199 17.25 1.25 17.25H23.75Z"/><rect x="2" y="2" width="21" height="14" rx="1"/></svg>