<svg width="68" height="43" viewBox="0 0 68 43" fill="none" xmlns="http://www.w3.org/2000/svg"><rect x="0.5" y="2.5" width="67" height="36" rx="3.5" stroke="#6E52DD"/><rect x="0.5" y="4.5" width="67" height="36" rx="3.5" stroke="#6E52DD"/><rect x="0.5" y="6.5" width="67" height="36" rx="3.5" stroke="#6E52DD"/><rect x="0.5" y="0.5" width="67" height="36" rx="3.5" fill="white" stroke="#6E52DD"/><path d="M19.476 15.048L20.33 16.378L21.534 15.468V23H23.144V13.172H21.982L19.476 15.048ZM28.1642 18.1C28.1642 21.096 29.2282 23.112 31.4822 23.112C33.7222 23.112 34.7302 21.096 34.7302 18.1C34.7302 15.104 33.6942 13.088 31.4542 13.088C29.2002 13.088 28.1642 15.104 28.1642 18.1ZM29.8862 18.1C29.8862 15.734 30.3482 14.6 31.4542 14.6C32.5742 14.6 33.0222 15.678 33.0222 18.1C33.0222 20.522 32.6022 21.614 31.4822 21.614C30.4322 21.614 29.8862 20.494 29.8862 18.1ZM35.9161 18.1C35.9161 21.096 36.9801 23.112 39.2341 23.112C41.4741 23.112 42.4821 21.096 42.4821 18.1C42.4821 15.104 41.4461 13.088 39.2061 13.088C36.9521 13.088 35.9161 15.104 35.9161 18.1ZM37.6381 18.1C37.6381 15.734 38.1001 14.6 39.2061 14.6C40.3261 14.6 40.7741 15.678 40.7741 18.1C40.7741 20.522 40.3541 21.614 39.2341 21.614C38.1841 21.614 37.6381 20.494 37.6381 18.1ZM43.6681 18.1C43.6681 21.096 44.7321 23.112 46.9861 23.112C49.2261 23.112 50.2341 21.096 50.2341 18.1C50.2341 15.104 49.1981 13.088 46.9581 13.088C44.7041 13.088 43.6681 15.104 43.6681 18.1ZM45.3901 18.1C45.3901 15.734 45.8521 14.6 46.9581 14.6C48.0781 14.6 48.5261 15.678 48.5261 18.1C48.5261 20.522 48.1061 21.614 46.9861 21.614C45.9361 21.614 45.3901 20.494 45.3901 18.1Z" fill="#6E52DD"/></svg>