<svg xmlns="http://www.w3.org/2000/svg" width="40" height="29" viewBox="0 0 40 29"><path fill="#6e52dd" fill-rule="evenodd" clip-rule="evenodd" d="M29.8645 9.27177H32.3828C36.583 9.27177 40 12.6609 40 16.8266C40 17.1775 39.9622 17.7506 39.9032 18.4311L39.9027 18.4379C39.6977 20.7988 39.2389 24.4498 39.2141 24.6472L39.2128 24.6553L39.2116 24.6621L39.2115 24.6624L39.21 24.6707L39.2089 24.6774C39.2078 24.6841 39.2068 24.6908 39.2053 24.6974C39.2036 24.705 39.2016 24.7125 39.1996 24.72L39.1978 24.7265L39.1955 24.7353L39.1927 24.7456L39.1911 24.751C39.1871 24.7635 39.1824 24.7755 39.1777 24.7875C39.1757 24.7924 39.1741 24.7974 39.1721 24.8023C39.1648 24.8193 39.1567 24.8358 39.1479 24.852L39.1471 24.8535L39.1462 24.8548C39.138 24.8698 39.129 24.8844 39.1194 24.8985C39.118 24.9007 39.1164 24.9028 39.1149 24.9048L39.1112 24.9098C39.1034 24.9207 39.0956 24.9315 39.087 24.9421C39.083 24.9469 39.0787 24.9515 39.0746 24.9562C39.0669 24.9649 39.0591 24.9736 39.051 24.9818C39.0475 24.9854 39.0438 24.9889 39.0401 24.9923L39.0399 24.9925L39.035 24.9971C39.0273 25.0043 39.0198 25.0114 39.0117 25.0181C39.0055 25.0234 38.999 25.0283 38.9926 25.0334C38.9848 25.0392 38.9773 25.0451 38.9693 25.0506C38.9623 25.0555 38.9549 25.0602 38.9476 25.0649L38.9385 25.0705L38.9237 25.0793C38.916 25.0836 38.9084 25.0878 38.9004 25.0919C38.892 25.0961 38.8834 25.1001 38.8748 25.1041C38.867 25.1076 38.8592 25.1111 38.8511 25.1143L38.8385 25.1191L38.8224 25.1247C38.8149 25.1273 38.8075 25.1299 38.7998 25.1322L38.7865 25.1358L38.7787 25.1378L38.7655 25.1409L38.7591 25.1425L38.759 25.1425L38.759 25.1425C38.7549 25.1435 38.7508 25.1445 38.7466 25.1453C38.7318 25.1483 38.7166 25.1504 38.7014 25.1521L38.6949 25.1531L38.6912 25.1535C38.6722 25.1554 38.653 25.1566 38.6334 25.1566L38.6322 25.1565H36.0231C35.735 27.3224 33.8626 29 31.6014 29C29.3401 29 27.4679 27.3224 27.1798 25.1565H17.7814C17.4933 27.3224 15.6211 29 13.3599 29C11.0986 29 9.22629 27.3224 8.93824 25.1565H6.32979L6.32893 25.1566C6.31002 25.1566 6.29096 25.1556 6.27174 25.1538L6.27065 25.1536C6.25323 25.1519 6.23612 25.1492 6.21909 25.146L6.21555 25.1455L6.21206 25.1449C6.19416 25.1413 6.17666 25.1368 6.15932 25.1317L6.15518 25.1306C6.13995 25.1259 6.12518 25.1203 6.11049 25.1145L6.1065 25.1131C6.1045 25.1124 6.10249 25.1118 6.10057 25.1109C6.0923 25.1075 6.08426 25.1035 6.0762 25.0995L6.07613 25.0994L6.07606 25.0994L6.06932 25.096C6.0194 25.0716 5.97377 25.0405 5.93338 25.0038L5.92707 24.9982L5.92032 24.9922L5.91377 24.9861L5.912 24.9842L5.91049 24.9825C5.84768 24.9191 5.79955 24.8415 5.77119 24.755L5.76989 24.7513L5.76893 24.7488C5.76742 24.7439 5.7662 24.7389 5.76498 24.734L5.76498 24.7339L5.76291 24.7257L5.76103 24.7189C5.75864 24.7103 5.75627 24.7017 5.75448 24.6929L5.75334 24.6858L5.75244 24.6799C5.74971 24.6651 5.74713 24.6503 5.74557 24.6353C5.74528 24.6328 5.74519 24.6303 5.74509 24.6278L5.74471 24.6211C5.74362 24.6064 5.74252 24.5917 5.74252 24.5767L5.74244 24.5753C5.74244 24.568 5.74293 24.561 5.74341 24.5539L5.74408 24.5433L5.74447 24.5339L5.74479 24.5257L5.74526 24.5192L5.74549 24.517L5.74573 24.5149L6.35112 18.3177L6.35127 18.3159L6.74284 14.3083H4.7658C4.44213 14.3083 4.17986 14.0481 4.17986 13.7271C4.17986 13.4062 4.44213 13.146 4.7658 13.146H6.85635L7.57542 5.78523H0.58594C0.262267 5.78523 0 5.52503 0 5.20409C0 4.88314 0.262267 4.62295 0.58594 4.62295H7.68901L8.08933 0.52512L8.08972 0.522408C8.08997 0.519878 8.09038 0.517414 8.09079 0.514945L8.09175 0.508461C8.0937 0.493583 8.09566 0.478784 8.09863 0.464294L8.09937 0.461427L8.10011 0.45856C8.15784 0.192164 8.3966 0 8.67183 7.74856e-05L8.67269 0H15.704C16.0266 0 16.2899 0.260352 16.2899 0.581142C16.2899 0.901158 16.0266 1.16228 15.704 1.16228H9.20449L8.86636 4.62295H14.9227C15.2464 4.62295 15.5087 4.88314 15.5087 5.20409C15.5087 5.52503 15.2464 5.78523 14.9227 5.78523H8.75277L8.0337 13.146H11.7968C12.1204 13.146 12.3827 13.4062 12.3827 13.7271C12.3827 14.0481 12.1204 14.3083 11.7968 14.3083H7.92011L7.57956 17.795H27.9397L28.2339 14.4444L28.2343 14.4414L29.4003 1.16228H18.0477C17.7243 1.16228 17.4618 0.901158 17.4618 0.581142C17.4618 0.260352 17.7243 0 18.0477 0H30.0299H30.0317H30.039C30.0431 0 30.047 0.000266873 30.051 0.000534365L30.0595 0.00100731L30.0697 0.00127421C30.0765 0.00141196 30.0833 0.00154971 30.0902 0.0021696L30.095 0.00278948C30.1023 0.00343703 30.1094 0.0045318 30.1166 0.00563211L30.1166 0.00563286L30.1235 0.00666376L30.1312 0.00774975L30.1312 0.00775168C30.1388 0.008808 30.1465 0.00986589 30.1539 0.0113129C30.1589 0.0122899 30.1639 0.0135442 30.1688 0.0148037L30.1775 0.0169694L30.1813 0.0178718C30.1914 0.0202756 30.2015 0.0226862 30.2114 0.0256477L30.2194 0.0284196L30.2264 0.0308393C30.24 0.0353334 30.2535 0.0399826 30.2665 0.0454066L30.2718 0.0478861C30.4821 0.138002 30.6251 0.345276 30.6251 0.580445V0.581065L30.625 0.584939C30.6249 0.600359 30.6247 0.615778 30.6232 0.63143L29.8645 9.27177ZM32.1595 10.4342H29.7624L29.4562 13.9208H31.8533L32.1595 10.4342ZM13.3601 27.8376C11.5462 27.8376 10.0706 26.3741 10.0706 24.5752C10.0706 22.7763 11.5463 21.3127 13.3601 21.3127C15.1738 21.3127 16.6494 22.7763 16.6494 24.5752C16.6494 26.3741 15.1738 27.8376 13.3601 27.8376ZM28.3121 24.5752C28.3121 26.3741 29.7876 27.8376 31.6014 27.8376C33.4152 27.8376 34.8908 26.3741 34.8908 24.5752C34.8908 22.7763 33.4152 21.3127 31.6014 21.3127C29.7877 21.3127 28.3121 22.7763 28.3121 24.5752ZM38.1144 23.9938H36.0233C35.7353 21.8277 33.8629 20.1501 31.6015 20.1501C29.3403 20.1501 27.4679 21.8278 27.18 23.9938H17.7816C17.4937 21.8277 15.6214 20.1501 13.3601 20.1501C11.0987 20.1501 9.22629 21.8278 8.93832 23.9938H6.97393L7.46604 18.9569H28.4767V18.9572H28.4775C28.4971 18.9572 28.5166 18.9562 28.5358 18.9542C28.5394 18.9539 28.5429 18.9531 28.5465 18.9527C28.5618 18.9509 28.5771 18.9487 28.5921 18.9458C28.5959 18.945 28.5997 18.944 28.6035 18.9431L28.6113 18.9411L28.6145 18.9404C28.6189 18.9393 28.6233 18.9383 28.6276 18.9372C28.6339 18.9357 28.64 18.934 28.6461 18.9322C28.6519 18.9305 28.6575 18.9285 28.6631 18.9265L28.6689 18.9245L28.672 18.9234L28.6722 18.9233C28.681 18.9203 28.6897 18.9173 28.6982 18.9139C28.7064 18.9105 28.7143 18.9068 28.7222 18.9031C28.7309 18.8991 28.7396 18.8952 28.7479 18.8908C28.7559 18.8867 28.7637 18.8822 28.7716 18.8777C28.7796 18.873 28.7876 18.8683 28.7954 18.8633L28.8056 18.8566L28.8175 18.8482C28.8252 18.8428 28.8327 18.8372 28.8402 18.8314C28.8439 18.8285 28.8475 18.8255 28.8512 18.8225C28.8542 18.82 28.8571 18.8175 28.8601 18.8149L28.8696 18.8067C28.8737 18.8029 28.8778 18.7992 28.8818 18.7953C28.8878 18.7896 28.8937 18.7838 28.8995 18.7779C28.9065 18.7706 28.9133 18.7631 28.92 18.7554L28.9258 18.7487L28.9354 18.7371C28.9419 18.729 28.9481 18.7206 28.9542 18.7122C28.9588 18.7058 28.9632 18.6994 28.9676 18.6929C28.9733 18.6842 28.9788 18.6752 28.984 18.6661L28.9855 18.6636C28.989 18.6576 28.9925 18.6516 28.9957 18.6454C28.9996 18.6382 29.0031 18.6308 29.0066 18.6233L29.0093 18.6176L29.0114 18.6129C29.0141 18.607 29.0169 18.6011 29.0193 18.595C29.0224 18.5876 29.0251 18.58 29.0278 18.5724L29.0279 18.5723L29.0297 18.5671C29.0326 18.5588 29.0357 18.5505 29.0382 18.542C29.04 18.5359 29.0415 18.5298 29.043 18.5236L29.0453 18.5146L29.047 18.5078C29.0487 18.5009 29.0505 18.4939 29.0518 18.4869C29.0536 18.4778 29.0547 18.4685 29.0561 18.4592C29.0575 18.4496 29.0592 18.4401 29.0601 18.4303L29.0604 18.4287L29.0607 18.4262L29.3543 15.0827H32.3826C34.1779 15.0827 34.9876 16.0053 35.8447 16.9821C36.5519 17.788 37.3416 18.6872 38.6837 18.9066C38.5133 20.6942 38.2377 22.989 38.1144 23.9938ZM36.7285 16.2193C37.3775 16.9588 37.9132 17.5659 38.7839 17.742C38.8117 17.361 38.8281 17.0446 38.8281 16.8268C38.8281 13.621 36.4362 10.9595 33.3297 10.5038L33.0265 13.9556C34.926 14.1659 35.9169 15.2945 36.7285 16.2193Z"></path><path fill-rule="evenodd" clip-rule="evenodd" d="M11 25C11 23.8972 11.8972 23 13 23C14.1028 23 15 23.8972 15 25C15 26.1028 14.1028 27 13 27C11.8972 27 11 26.1028 11 25ZM12.0909 25C12.0909 25.5013 12.4987 25.9091 13 25.9091C13.5012 25.9091 13.9091 25.5013 13.9091 25C13.9091 24.4987 13.5013 24.0909 13 24.0909C12.4987 24.0909 12.0909 24.4987 12.0909 25Z" fill="#6e52dd"></path><path fill="#6e52dd" fill-rule="evenodd" clip-rule="evenodd" d="M29 25C29 23.8972 29.8972 23 31 23C32.1028 23 33 23.8972 33 25C33 26.1028 32.1028 27 31 27C29.8972 27 29 26.1028 29 25ZM30.0909 25C30.0909 25.5013 30.4987 25.9091 31 25.9091C31.5013 25.9091 31.9091 25.5013 31.9091 25C31.9091 24.4987 31.5013 24.0909 31 24.0909C30.4987 24.0909 30.0909 24.4987 30.0909 25Z"></path><path fill="#6e52dd" d="M5.41935 9H2.58065C2.2599 9 2 9.22387 2 9.5C2 9.77613 2.2599 10 2.58065 10H5.41935C5.7401 10 6 9.77613 6 9.5C6 9.22387 5.7401 9 5.41935 9Z"></path>
</svg>