<svg class="svg-ico-cart" xmlns="http://www.w3.org/2000/svg" width="23" height="21" viewBox="0 0 23 21"><path d="M23 0.9C23 1.4 22.6 1.8 22.1 1.8H20.3L14.5 15.6H2.3L0 6H11.4C11.9 6 12.3 6.4 12.3 6.9 12.3 7.4 11.9 7.8 11.4 7.8H2.3L3.7 13.8H13.3L19.2 0H22.1C22.6 0 23 0.4 23 0.9ZM7.8 18.5C7.8 19.9 6.8 21 5.4 21 4.1 21 3 19.9 3 18.5 3 17.1 4.1 16 5.4 16 6.8 16 7.8 17.1 7.8 18.5ZM5.4 17.2C6.1 17.2 6.7 17.8 6.7 18.5 6.7 19.2 6.1 19.8 5.4 19.8 4.7 19.8 4.1 19.2 4.1 18.5 4.1 17.8 4.7 17.2 5.4 17.2ZM14.3 18.5C14.3 19.9 13.2 21 11.9 21 10.5 21 9.5 19.9 9.5 18.5 9.5 17.1 10.5 16 11.9 16 13.2 16 14.3 17.1 14.3 18.5ZM11.9 17.2C12.6 17.2 13.1 17.8 13.1 18.5 13.1 19.2 12.6 19.8 11.9 19.8 11.2 19.8 10.6 19.2 10.6 18.5 10.6 17.8 11.2 17.2 11.9 17.2Z"></path></svg>