<svg class="svg-ico-ico" width="16" height="16" xmlns="http://www.w3.org/2000/svg" viewBox="0 0 96.9 96.9"><path d="M61.2 83.9H11.4V13H61.2c1.1 0 2-0.9 2-2V3.7c0-1.1-0.9-2-2-2H2c-1.1 0-2 0.9-2 2v89.6c0 1.1 0.9 2 2 2h59.2c1.1 0 2-0.9 2-2V85.9C63.2 84.8 62.3 83.9 61.2 83.9z"></path><path d="M96.4 47.1l-26.9-26.9c-0.7-0.8-2.1-0.7-2.8 0l-6.4 6.4c-0.8 0.8-0.8 2 0 2.8l12.2 12.2H19.7c-1.1 0-2 0.9-2 2v9.9c0 1.1 0.9 2 2 2h52.6L60.2 67.6c-0.8 0.8-0.8 2 0 2.8l6.4 6.4c0.4 0.4 0.9 0.6 1.4 0.6 0.5 0 1-0.2 1.4-0.6l26.9-26.9c0.4-0.4 0.6-0.9 0.6-1.4C96.9 47.9 96.7 47.4 96.4 47.1z"></path></svg>