<svg width="51" height="51" viewBox="0 0 51 51" fill="none" xmlns="http://www.w3.org/2000/svg"><path fill-rule="evenodd" clip-rule="evenodd" d="M0 25.5C0 11.4393 11.4393 0 25.5 0C39.5607 0 51 11.4393 51 25.5C51 39.5607 39.5607 51 25.5 51C11.4393 51 0 39.5607 0 25.5ZM1.7 25.5C1.7 38.6231 12.3768 49.3 25.5 49.3C38.6231 49.3 49.3 38.6231 49.3 25.5C49.3 12.3768 38.6231 1.7 25.5 1.7C12.3768 1.7 1.7 12.3768 1.7 25.5Z" fill="#6E52DD"/><path d="M25.1667 5C24.7067 5 24.3333 5.37823 24.3333 5.84615V25.3077H11.8333C11.3733 25.3077 11 25.6859 11 26.1538C11 26.6218 11.3733 27 11.8333 27H25.1667C25.6267 27 26 26.6218 26 26.1538V5.84615C26 5.37823 25.6267 5 25.1667 5Z" fill="#6E52DD"/></svg>