<svg width="7" height="14" viewBox="0 0 7 14" fill="none" xmlns="http://www.w3.org/2000/svg">
<path fill-rule="evenodd" clip-rule="evenodd" d="M3.4003 5.62552L3.44743 3.60807H1.19396L1.15152 5.62552H3.4003Z" fill="white"></path>
<path fill-rule="evenodd" clip-rule="evenodd" d="M6.09687 2.40663C5.65841 1.25025 5.34256 0.524377 5.15403 0.229004H3.8434C4.45155 1.4004 4.83343 2.68699 4.99843 4.09367C5.07855 4.77948 5.1069 5.77068 5.07385 7.06225C5.05031 8.69427 4.72032 10.3412 4.08388 11.9982C3.83401 12.654 3.537 13.3148 3.18811 13.9706H4.64484C5.03617 13.3399 5.385 12.6841 5.68201 11.9982C5.82346 11.6729 5.95547 11.3424 6.07328 11.007C6.54473 9.62037 6.7946 8.32882 6.81819 7.13237C6.85118 5.38524 6.61076 3.81332 6.09687 2.40663Z" fill="white"></path>
<path fill-rule="evenodd" clip-rule="evenodd" d="M0.929946 9.20489L0.882812 11.2073H3.15513L3.20226 9.20489H0.929946Z" fill="white"></path>
</svg>
