<svg width="28" height="29" viewBox="0 0 28 29" xmlns="http://www.w3.org/2000/svg"><path fill-rule="evenodd" clip-rule="evenodd" d="M18.9841 12.0891C18.9794 12.075 18.9738 12.0613 18.9673 12.0478C18.9597 12.0247 18.9505 12.0022 18.9395 11.9805C18.9299 11.9658 18.9194 11.9518 18.9082 11.9383C18.8963 11.9201 18.8831 11.9027 18.8686 11.8865C18.8552 11.8745 18.841 11.8631 18.8264 11.8526C18.8119 11.8394 18.7968 11.827 18.7809 11.8155L14.2355 9.06544C14.0914 8.97819 13.9113 8.97819 13.7673 9.06544L9.22182 11.8155C9.205 11.8266 9.18903 11.839 9.17409 11.8526C9.15926 11.8631 9.145 11.8745 9.13136 11.8865C9.11722 11.9027 9.10415 11.9199 9.09227 11.9378C9.08074 11.9514 9.07011 11.9656 9.06046 11.9805C9.04977 12.0016 9.04068 12.0235 9.03318 12.046C9.02671 12.0602 9.02091 12.0748 9.01591 12.0896C9.00529 12.1282 8.99994 12.1682 9 12.2083V16.7916C9.00006 16.9525 9.08369 17.1016 9.22046 17.1844L13.7659 19.9345L13.7709 19.9368L13.7759 19.9404C13.7998 19.9529 13.8247 19.9632 13.8505 19.9711C13.8551 19.9728 13.8596 19.9748 13.8641 19.9769C13.8699 19.9795 13.8757 19.9822 13.8818 19.984C13.9592 20.0053 14.0409 20.0053 14.1182 19.984C14.1243 19.9822 14.1301 19.9795 14.1359 19.9769C14.1404 19.9748 14.1449 19.9728 14.1495 19.9711C14.1753 19.9632 14.2002 19.9529 14.2241 19.9404L14.2291 19.9368L14.2341 19.9345L18.7795 17.1844C18.9163 17.1016 18.9999 16.9525 19 16.7916V12.2083C19.0001 12.168 18.9947 12.1279 18.9841 12.0891ZM14 9.99266L15.3891 10.8333L11.7273 13.0489L10.3382 12.2083L14 9.99266ZM9.90909 13.0177V16.5318L13.5455 18.7318V15.2177L9.90909 13.0177ZM14 14.4239L12.6109 13.5833L16.2727 11.3677L17.6618 12.2083L14 14.4239ZM14.4545 15.2177V18.7323L18.0909 16.5322V13.0177L14.4545 15.2177Z"></path><path fill-rule="evenodd" clip-rule="evenodd" d="M14.4211 0.189239C14.2297 -0.0321089 13.8861 -0.0638552 13.6536 0.118232C13.6263 0.139521 13.6013 0.163316 13.5789 0.189239L12 2.19295L12.8421 2.79406L13.4737 1.99258V6H14.5263V1.99258L15.1579 2.79406L16 2.19295L14.4211 0.189239Z"></path><path fill-rule="evenodd" clip-rule="evenodd" d="M15.1579 26.2L14.5263 27V23H13.4737V27L12.8421 26.2L12 26.8L13.5789 28.8C13.7534 29.0209 14.0832 29.0656 14.3158 28.9C14.3557 28.8715 14.3911 28.8378 14.4211 28.8L16 26.8L15.1579 26.2Z"></path><path d="M14 7H15V8H14V7Z"></path><path d="M14 21H15V22H14V21Z"></path><path fill-rule="evenodd" clip-rule="evenodd" d="M6 13.4737H2.00002L2.80002 12.8421L2.20002 12L0.200036 13.5789C-0.0209001 13.7534 -0.0656498 14.0832 0.100037 14.3158C0.128474 14.3557 0.162161 14.3911 0.200036 14.4211L2.20002 16L2.80002 15.1579L2.00002 14.5263H6V13.4737Z"></path><path fill-rule="evenodd" clip-rule="evenodd" d="M27.9 13.6842C27.8715 13.6443 27.8378 13.6089 27.8 13.5789L25.8 12L25.2 12.8421L26 13.4737H22V14.5263H26L25.2 15.1579L25.8 16L27.8 14.4211C28.0209 14.2466 28.0656 13.9168 27.9 13.6842Z"></path><path d="M6 14H7V15H6V14Z"></path><path d="M21 14H22V15H21V14Z"></path><path fill-rule="evenodd" clip-rule="evenodd" d="M8 8.404L5.61599 6.02002L6.45014 6.13888L6.56942 5.30431L4.48341 5.00463C4.25316 4.97043 4.03878 5.12939 4.00458 5.35969C3.99847 5.40073 3.99847 5.44246 4.00458 5.48345L4.30259 7.56944L5.13716 7.45015L5.0183 6.61601L7.40231 9L8 8.404Z"></path><path fill-rule="evenodd" clip-rule="evenodd" d="M23.9957 23.5183L23.6976 21.4308L22.862 21.551L22.9809 22.3857L20.5962 20L20 20.5964L22.3847 22.9822L21.5512 22.8624L21.4318 23.6976L23.5185 23.9958C23.5383 23.9986 23.5583 24.0001 23.5783 24C23.8112 24.0001 23.9999 23.8112 24 23.5782C24.0001 23.5582 23.9986 23.5382 23.9957 23.5183Z"></path><path fill-rule="evenodd" clip-rule="evenodd" d="M8.41365 9.61869L9.07087 8.9685L9.7281 9.61869L9.07087 10.2689L8.41365 9.61869Z"></path><path fill-rule="evenodd" clip-rule="evenodd" d="M18.2722 19.3711L18.9295 18.7209L19.5867 19.3711L18.9295 20.0212L18.2722 19.3711Z"></path><path fill-rule="evenodd" clip-rule="evenodd" d="M5.61482 22.9815L8 20.5963L7.40539 20L5.02022 22.3852L5.13914 21.5507L4.30416 21.4313L4.00432 23.5184C3.97127 23.7489 4.13131 23.9626 4.36188 23.9957C4.38175 23.9986 4.40178 24 4.42181 24C4.44184 24.0001 4.46188 23.9986 4.4817 23.9958L6.56873 23.6976L6.44938 22.8626L5.61482 22.9815Z"></path><path fill-rule="evenodd" clip-rule="evenodd" d="M23.8764 5.12386C23.7829 5.02935 23.6499 4.98502 23.5183 5.00452L21.4313 5.30265L21.5506 6.13759L22.3852 6.01868L20 8.40374L20.5963 9L22.9815 6.61494L22.8626 7.44862L23.6976 7.5688L23.9957 5.48187C24.0146 5.35041 23.9704 5.21779 23.8764 5.12386Z"></path><path fill-rule="evenodd" clip-rule="evenodd" d="M8.41403 19.3715L9.07125 18.7213L9.72847 19.3715L9.07125 20.0216L8.41403 19.3715Z"></path><path fill-rule="evenodd" clip-rule="evenodd" d="M18.2724 9.61706L18.9296 8.96688L19.5868 9.61706L18.9296 10.2673L18.2724 9.61706Z"></path></svg>
