<svg class="svg-ico-cart" xmlns="http://www.w3.org/2000/svg" width="23" height="21" viewBox="0 0 23 21"><path fill="#fff" fill-rule="evenodd" clip-rule="evenodd" d="M23 0.902583C23 1.40102 22.6057 1.80517 22.1192 1.80517H20.3482L14.4767 15.6447H2.34872L0 6.01718H11.4035C11.89 6.01718 12.2842 6.42117 12.2842 6.91976C12.2842 7.4182 11.89 7.82235 11.4035 7.82235H2.25645L3.72437 13.8396H13.3215L19.1931 0H22.1192C22.6059 0 23 0.403934 23 0.902583ZM7.84736 18.5028C7.84736 19.8797 6.75405 21 5.41057 21C4.06724 21 2.97399 19.8797 2.97399 18.5028C2.97399 17.1258 4.06724 16.0055 5.41057 16.0055C6.75405 16.0055 7.84736 17.1258 7.84736 18.5028ZM5.41057 17.2089C6.10667 17.2089 6.6731 17.7895 6.6731 18.5028C6.6731 19.2163 6.10667 19.7966 5.41057 19.7966C4.71467 19.7966 4.14824 19.2163 4.14824 18.5028C4.14824 17.7895 4.71467 17.2089 5.41057 17.2089ZM14.3235 18.5028C14.3235 19.8797 13.23 21 11.8866 21C10.5433 21 9.45009 19.8797 9.45009 18.5028C9.45009 17.1258 10.5433 16.0055 11.8866 16.0055C13.23 16.0055 14.3235 17.1258 14.3235 18.5028ZM11.8866 17.2089C12.5828 17.2089 13.1493 17.7895 13.1493 18.5028C13.1493 19.2163 12.5827 19.7966 11.8866 19.7966C11.1906 19.7966 10.6243 19.2163 10.6243 18.5028C10.6243 17.7895 11.1906 17.2089 11.8866 17.2089Z"></path></svg>