<svg class="svg-ico-user" xmlns="http://www.w3.org/2000/svg" width="18" height="18" viewBox="0 0 18 18"><path d="M0 9C0 14 4 18 9 18 14 18 18 14 18 9 18 4 14 0 9 0 4 0 0 4 0 9ZM0.8 9C0.8 4.5 4.5 0.8 9 0.8 13.5 0.8 17.3 4.5 17.3 9 17.3 13.5 13.5 17.3 9 17.3 4.5 17.3 0.8 13.5 0.8 9Z"></path><path d="M4.1 16.4C5.7 17.4 7.6 18 9.5 18 11.4 18 13.3 17.4 14.9 16.4 15 16.3 15 16.2 15 16.1 15 16 14.9 15.9 14.8 15.9 12.5 15.1 12.1 14.4 12.1 13.1 12.1 12.8 12.2 12.7 12.3 12.5 12.5 12.2 12.8 11.8 13 10.9 13 10.8 13 10.8 13.1 10.7L13.1 10.7C13.5 10.5 13.8 10.3 13.9 9.3 13.9 8.8 13.7 8.5 13.5 8.4 13.6 7.7 13.9 5.4 13 4.3 12.4 3.6 11.5 3.6 11.2 3.6 10.7 3.1 9.2 2.7 7.2 3.4 5 4.3 5.1 6.1 5.3 7.6 5.4 7.9 5.4 8.2 5.5 8.4 5.3 8.5 5.1 8.8 5.1 9.3 5.2 10.3 5.5 10.5 5.9 10.7 6 10.8 6 10.8 6 10.9 6.2 11.8 6.5 12.2 6.7 12.5L6.7 12.5C6.8 12.7 6.9 12.8 6.9 13.1 6.9 14.4 6.5 15.1 4.2 15.9 4.1 15.9 4 16 4 16.1 4 16.2 4 16.3 4.1 16.4ZM9.5 17.5C7.9 17.5 6.3 17 4.9 16.2 6.8 15.4 7.5 14.7 7.5 13.1 7.5 12.6 7.3 12.4 7.1 12.2L7.1 12.2C7 11.9 6.8 11.6 6.6 10.8 6.5 10.4 6.3 10.3 6.1 10.2L6.1 10.2C5.9 10.1 5.7 10.1 5.7 9.3 5.7 8.9 5.9 8.7 5.9 8.7 5.9 8.7 5.9 8.7 5.9 8.7 6 8.7 6.1 8.6 6 8.4 6 8.4 5.9 8 5.9 7.5 5.6 6.1 5.6 4.6 7.5 3.9 9.3 3.2 10.6 3.7 10.8 3.9 10.8 4 11 4.1 11 4.1 11 4.1 11.1 4.1 11.1 4.1 11.1 4.1 11.1 4.1 11.1 4.1 11.3 4.1 12.1 4.1 12.6 4.7 13.3 5.5 13.1 7.7 13 8.4 12.9 8.5 13 8.7 13.1 8.7 13.1 8.7 13.3 8.8 13.3 9.2 13.3 10.1 13.1 10.1 12.9 10.2L12.9 10.2C12.7 10.3 12.5 10.4 12.4 10.8 12.2 11.6 12 11.9 11.9 12.2L11.9 12.2C11.7 12.4 11.5 12.6 11.5 13.1 11.5 14.7 12.2 15.4 14.1 16.2 12.7 17 11.1 17.5 9.5 17.5Z"></path></svg>
