<svg width="22" height="22" viewBox="0 0 22 22" xmlns="http://www.w3.org/2000/svg"><path fill="#6e52dd" fill-rule="evenodd" clip-rule="evenodd" d="M21.9752 4.24865L21.9907 4.20899L11.005 0L0.0375044 4.25258L0.00173431 4.23865V4.26587L0 4.26672L0.00173431 4.27124V17.7719L11.0001 22L22 17.7717V4.23887L21.9752 4.24865ZM11.1638 1L15 2.26418L4.54242 6L1 4.7142L11.1638 1ZM10 21L6.22466 19.4391L4.33019 18.7102L1 17.3648V6L4.29666 7.33163V10.1734L4.59061 10.0894L4.78909 10.3689L5.06556 10.3028L5.33333 10.5925L5.56693 10.51L5.94413 10.8931V7.99707L10 9.63532V21ZM10.0189 9L6 7.30192L15.912 3L20 4.78357L10.0189 9ZM21 17.3649L11 21V9.63563L20.999 6V17.3646L21 17.3649Z"></path></svg>
