<svg width="51" height="58" viewBox="0 0 51 58" fill="none" xmlns="http://www.w3.org/2000/svg">
<path fill-rule="evenodd" clip-rule="evenodd" d="M50 1L1 0.999999L1 57H50V1ZM1 0C0.447715 0 0 0.447714 0 0.999999V57C0 57.5523 0.447715 58 1 58H50C50.5523 58 51 57.5523 51 57V1C51 0.447715 50.5523 0 50 0H1Z" fill="#6E52DD"/>
<path fill-rule="evenodd" clip-rule="evenodd" d="M10 9H5V14H10V9ZM5 8C4.44772 8 4 8.44772 4 9V14C4 14.5523 4.44772 15 5 15H10C10.5523 15 11 14.5523 11 14V9C11 8.44772 10.5523 8 10 8H5Z" fill="#6E52DD"/>
<path fill-rule="evenodd" clip-rule="evenodd" d="M19 9H14V14H19V9ZM14 8C13.4477 8 13 8.44772 13 9V14C13 14.5523 13.4477 15 14 15H19C19.5523 15 20 14.5523 20 14V9C20 8.44772 19.5523 8 19 8H14Z" fill="#6E52DD"/>
<path fill-rule="evenodd" clip-rule="evenodd" d="M28 9H23V14H28V9ZM23 8C22.4477 8 22 8.44772 22 9V14C22 14.5523 22.4477 15 23 15H28C28.5523 15 29 14.5523 29 14V9C29 8.44772 28.5523 8 28 8H23Z" fill="#6E52DD"/>
<path fill-rule="evenodd" clip-rule="evenodd" d="M37 9H32V14H37V9ZM32 8C31.4477 8 31 8.44772 31 9V14C31 14.5523 31.4477 15 32 15H37C37.5523 15 38 14.5523 38 14V9C38 8.44772 37.5523 8 37 8H32Z" fill="#6E52DD"/>
<path fill-rule="evenodd" clip-rule="evenodd" d="M46 9H41V14H46V9ZM41 8C40.4477 8 40 8.44772 40 9V14C40 14.5523 40.4477 15 41 15H46C46.5523 15 47 14.5523 47 14V9C47 8.44772 46.5523 8 46 8H41Z" fill="#6E52DD"/>
<path fill-rule="evenodd" clip-rule="evenodd" d="M10 18H5V23H10V18ZM5 17C4.44772 17 4 17.4477 4 18V23C4 23.5523 4.44772 24 5 24H10C10.5523 24 11 23.5523 11 23V18C11 17.4477 10.5523 17 10 17H5Z" fill="#6E52DD"/>
<path fill-rule="evenodd" clip-rule="evenodd" d="M19 18H14V23H19V18ZM14 17C13.4477 17 13 17.4477 13 18V23C13 23.5523 13.4477 24 14 24H19C19.5523 24 20 23.5523 20 23V18C20 17.4477 19.5523 17 19 17H14Z" fill="#6E52DD"/>
<path d="M22 18C22 17.4477 22.4477 17 23 17H28C28.5523 17 29 17.4477 29 18V23C29 23.5523 28.5523 24 28 24H23C22.4477 24 22 23.5523 22 23V18Z" fill="#6E52DD"/>
<path fill-rule="evenodd" clip-rule="evenodd" d="M28 18H23V23H28V18ZM23 17C22.4477 17 22 17.4477 22 18V23C22 23.5523 22.4477 24 23 24H28C28.5523 24 29 23.5523 29 23V18C29 17.4477 28.5523 17 28 17H23Z" fill="#6E52DD"/>
<path fill-rule="evenodd" clip-rule="evenodd" d="M37 18H32V23H37V18ZM32 17C31.4477 17 31 17.4477 31 18V23C31 23.5523 31.4477 24 32 24H37C37.5523 24 38 23.5523 38 23V18C38 17.4477 37.5523 17 37 17H32Z" fill="#6E52DD"/>
<path fill-rule="evenodd" clip-rule="evenodd" d="M46 18H41V23H46V18ZM41 17C40.4477 17 40 17.4477 40 18V23C40 23.5523 40.4477 24 41 24H46C46.5523 24 47 23.5523 47 23V18C47 17.4477 46.5523 17 46 17H41Z" fill="#6E52DD"/>
<path fill-rule="evenodd" clip-rule="evenodd" d="M10 27H5V32H10V27ZM5 26C4.44772 26 4 26.4477 4 27V32C4 32.5523 4.44772 33 5 33H10C10.5523 33 11 32.5523 11 32V27C11 26.4477 10.5523 26 10 26H5Z" fill="#6E52DD"/>
<path fill-rule="evenodd" clip-rule="evenodd" d="M19 27H14V32H19V27ZM14 26C13.4477 26 13 26.4477 13 27V32C13 32.5523 13.4477 33 14 33H19C19.5523 33 20 32.5523 20 32V27C20 26.4477 19.5523 26 19 26H14Z" fill="#6E52DD"/>
<path fill-rule="evenodd" clip-rule="evenodd" d="M28 27H23V32H28V27ZM23 26C22.4477 26 22 26.4477 22 27V32C22 32.5523 22.4477 33 23 33H28C28.5523 33 29 32.5523 29 32V27C29 26.4477 28.5523 26 28 26H23Z" fill="#6E52DD"/>
<path fill-rule="evenodd" clip-rule="evenodd" d="M37 27H32V32H37V27ZM32 26C31.4477 26 31 26.4477 31 27V32C31 32.5523 31.4477 33 32 33H37C37.5523 33 38 32.5523 38 32V27C38 26.4477 37.5523 26 37 26H32Z" fill="#6E52DD"/>
<path fill-rule="evenodd" clip-rule="evenodd" d="M46 27H41V32H46V27ZM41 26C40.4477 26 40 26.4477 40 27V32C40 32.5523 40.4477 33 41 33H46C46.5523 33 47 32.5523 47 32V27C47 26.4477 46.5523 26 46 26H41Z" fill="#6E52DD"/>
<path fill-rule="evenodd" clip-rule="evenodd" d="M10 36H5V41H10V36ZM5 35C4.44772 35 4 35.4477 4 36V41C4 41.5523 4.44772 42 5 42H10C10.5523 42 11 41.5523 11 41V36C11 35.4477 10.5523 35 10 35H5Z" fill="#6E52DD"/>
<path fill-rule="evenodd" clip-rule="evenodd" d="M19 36H14V41H19V36ZM14 35C13.4477 35 13 35.4477 13 36V41C13 41.5523 13.4477 42 14 42H19C19.5523 42 20 41.5523 20 41V36C20 35.4477 19.5523 35 19 35H14Z" fill="#6E52DD"/>
<path fill-rule="evenodd" clip-rule="evenodd" d="M28 36H23V41H28V36ZM23 35C22.4477 35 22 35.4477 22 36V41C22 41.5523 22.4477 42 23 42H28C28.5523 42 29 41.5523 29 41V36C29 35.4477 28.5523 35 28 35H23Z" fill="#6E52DD"/>
<path d="M31 36C31 35.4477 31.4477 35 32 35H37C37.5523 35 38 35.4477 38 36V41C38 41.5523 37.5523 42 37 42H32C31.4477 42 31 41.5523 31 41V36Z" fill="#6E52DD"/>
<path fill-rule="evenodd" clip-rule="evenodd" d="M37 36H32V41H37V36ZM32 35C31.4477 35 31 35.4477 31 36V41C31 41.5523 31.4477 42 32 42H37C37.5523 42 38 41.5523 38 41V36C38 35.4477 37.5523 35 37 35H32Z" fill="#6E52DD"/>
<path fill-rule="evenodd" clip-rule="evenodd" d="M46 36H41V41H46V36ZM41 35C40.4477 35 40 35.4477 40 36V41C40 41.5523 40.4477 42 41 42H46C46.5523 42 47 41.5523 47 41V36C47 35.4477 46.5523 35 46 35H41Z" fill="#6E52DD"/>
<path d="M4 45C4 44.4477 4.44772 44 5 44H10C10.5523 44 11 44.4477 11 45V50C11 50.5523 10.5523 51 10 51H5C4.44772 51 4 50.5523 4 50V45Z" fill="#6E52DD"/>
<path fill-rule="evenodd" clip-rule="evenodd" d="M10 45H5V50H10V45ZM5 44C4.44772 44 4 44.4477 4 45V50C4 50.5523 4.44772 51 5 51H10C10.5523 51 11 50.5523 11 50V45C11 44.4477 10.5523 44 10 44H5Z" fill="#6E52DD"/>
<path fill-rule="evenodd" clip-rule="evenodd" d="M19 45H14V50H19V45ZM14 44C13.4477 44 13 44.4477 13 45V50C13 50.5523 13.4477 51 14 51H19C19.5523 51 20 50.5523 20 50V45C20 44.4477 19.5523 44 19 44H14Z" fill="#6E52DD"/>
<path fill-rule="evenodd" clip-rule="evenodd" d="M28 45H23V50H28V45ZM23 44C22.4477 44 22 44.4477 22 45V50C22 50.5523 22.4477 51 23 51H28C28.5523 51 29 50.5523 29 50V45C29 44.4477 28.5523 44 28 44H23Z" fill="#6E52DD"/>
<path fill-rule="evenodd" clip-rule="evenodd" d="M37 45H32V50H37V45ZM32 44C31.4477 44 31 44.4477 31 45V50C31 50.5523 31.4477 51 32 51H37C37.5523 51 38 50.5523 38 50V45C38 44.4477 37.5523 44 37 44H32Z" fill="#6E52DD"/>
<path fill-rule="evenodd" clip-rule="evenodd" d="M46 45H41V50H46V45ZM41 44C40.4477 44 40 44.4477 40 45V50C40 50.5523 40.4477 51 41 51H46C46.5523 51 47 50.5523 47 50V45C47 44.4477 46.5523 44 46 44H41Z" fill="#6E52DD"/>
</svg>
