<svg width="24" height="24" viewBox="0 0 24 18" xmlns="http://www.w3.org/2000/svg"><mask id="mask0" x="0" y="0" width="24" height="18"><path fill-rule="evenodd" clip-rule="evenodd" d="M0 0.00195312H24V17.7187H0V0.00195312Z" fill="white"></path></mask><g mask="url(#mask0)"><path fill-rule="evenodd" clip-rule="evenodd" d="M22 0H5.2C4.0959 0.00135911 3.20135 0.901945 3.2 2.01349V2.41619H2C0.8959 2.41755 0.00135 3.31814 0 4.42969V15.7053C0.00135 16.8168 0.8959 17.7174 2 17.7188H18.8C19.9041 17.7174 20.7986 16.8168 20.8 15.7053V15.3026H22C23.1041 15.3012 23.9986 14.4006 24 13.2891V2.01349C23.9986 0.901945 23.1041 0.00135911 22 0ZM0.8 4.42969C0.8 3.76252 1.3373 3.22159 2 3.22159H18.8C19.4627 3.22159 20 3.76252 20 4.42969V5.23509H0.8V4.42969ZM0.8 6.84588H20V6.04048H0.8V6.84588ZM20 15.7053C20 16.3724 19.4627 16.9134 18.8 16.9134H2C1.3373 16.9134 0.8 16.3724 0.8 15.7053V7.65128H20V15.7053ZM23.2 13.2891C23.2 13.9562 22.6627 14.4972 22 14.4972H20.8V4.42969C20.7986 3.31814 19.9041 2.41755 18.8 2.41619H4V2.01349C4 1.34632 4.5373 0.805398 5.2 0.805398H22C22.6627 0.805398 23.2 1.34632 23.2 2.01349V13.2891Z"></path></g><path fill-rule="evenodd" clip-rule="evenodd" d="M15.5742 12.0001C15.1629 12.0018 14.7726 12.2539 14.5045 12.691C14.1147 12.0596 13.4862 11.8343 12.9281 12.1261C12.3701 12.4178 12 13.1648 12 14C12 14.8352 12.3701 15.5822 12.9281 15.8739C13.4862 16.1657 14.1147 15.9404 14.5045 15.309C14.9363 16.0024 15.6502 16.1915 16.2327 15.767C16.8153 15.3427 17.1152 14.4148 16.9589 13.5208C16.8026 12.6267 16.2307 11.9986 15.5742 12.0001ZM13.4349 15C13.0411 15 12.7218 14.5522 12.7218 14C12.7218 13.4478 13.0411 13 13.4349 13C13.8287 13 14.148 13.4478 14.148 14C14.148 14.5522 13.8287 15 13.4349 15ZM15.5742 15C15.1804 15 14.8611 14.5522 14.8611 14C14.8611 13.4478 15.1804 13 15.5742 13C15.968 13 16.2873 13.4478 16.2873 14C16.2873 14.5522 15.968 15 15.5742 15Z"></path></svg>