<svg xmlns="http://www.w3.org/2000/svg" width="19" height="17" viewBox="0 0 19 17"><path d="M2.134 6.892C1.37133 6.188 0.99 5.286 0.99 4.186C0.99 3.086 1.364 2.19133 2.112 1.502C2.88933 0.812666 3.85733 0.467999 5.016 0.467999C6.17467 0.467999 7.13533 0.812666 7.898 1.502C8.66067 2.17667 9.042 3.07133 9.042 4.186C9.042 5.286 8.66067 6.188 7.898 6.892C7.12067 7.58133 6.16 7.926 5.016 7.926C3.872 7.926 2.91133 7.58133 2.134 6.892ZM2.64 4.186C2.64 4.86067 2.86733 5.418 3.322 5.858C3.79133 6.28333 4.356 6.496 5.016 6.496C5.69067 6.496 6.25533 6.28333 6.71 5.858C7.16467 5.418 7.392 4.86067 7.392 4.186C7.392 3.526 7.16467 2.98333 6.71 2.558C6.25533 2.118 5.69067 1.898 5.016 1.898C4.34133 1.898 3.77667 2.118 3.322 2.558C2.86733 2.98333 2.64 3.526 2.64 4.186ZM11.396 15.098C10.6333 14.394 10.252 13.492 10.252 12.392C10.252 11.292 10.626 10.3973 11.374 9.708C12.1513 9.01867 13.1193 8.674 14.278 8.674C15.4367 8.674 16.3973 9.01867 17.16 9.708C17.9227 10.3827 18.304 11.2773 18.304 12.392C18.304 13.492 17.9227 14.394 17.16 15.098C16.3827 15.7873 15.422 16.132 14.278 16.132C13.134 16.132 12.1733 15.7873 11.396 15.098ZM11.902 12.392C11.902 13.0667 12.1293 13.624 12.584 14.064C13.0533 14.4893 13.618 14.702 14.278 14.702C14.9527 14.702 15.5173 14.4893 15.972 14.064C16.4267 13.624 16.654 13.0667 16.654 12.392C16.654 11.732 16.4267 11.1893 15.972 10.764C15.5173 10.324 14.9527 10.104 14.278 10.104C13.6033 10.104 13.0387 10.324 12.584 10.764C12.1293 11.1893 11.902 11.732 11.902 12.392ZM4.532 16.22L3.498 15.494L14.806 0.379999L15.818 1.128L4.532 16.22Z"/></svg>