<svg xmlns="http://www.w3.org/2000/svg" width="35" height="36" viewBox="0 0 35 36"><path fill="#6e52dd" fill-rule="evenodd" clip-rule="evenodd" d="M35 21.8397V18.063C35 16.9501 34.2993 15.9727 33.2281 15.6307C32.7889 15.4905 32.3276 15.7299 32.1862 16.1652C32.0448 16.6006 32.272 17.0672 32.7113 17.2074C33.0833 17.3261 33.3289 17.6778 33.3289 18.0629V21.8396C33.3289 22.3348 32.9603 22.7493 32.4606 22.7493H31.3283C31.4783 21.9212 31.5543 21.0822 31.5543 20.2285C31.5543 18.4625 31.2262 16.7451 30.5784 15.1213C30.5786 15.1211 30.5789 15.1205 30.5791 15.1199L30.5794 15.1192L30.5797 15.1187C30.9238 14.8229 31.2726 14.3859 31.5616 13.8896C32.3631 12.514 32.4039 11.3792 31.6744 10.9092L30.592 10.1318C30.6271 9.8456 30.6448 9.55611 30.6448 9.26672C30.6448 8.97299 30.6265 8.67909 30.5903 8.38803L31.6731 7.61048C32.4039 7.141 32.3636 6.00595 31.5616 4.62963C31.2725 4.13319 30.9238 3.69693 30.5797 3.40119C29.8608 2.78365 29.3056 2.89674 29.0118 3.04434L27.7868 3.58679C27.3173 3.23537 26.8098 2.94468 26.2701 2.71832L26.1317 1.39555C26.0874 0.533155 25.0755 0 23.4714 0C21.8638 0 20.8524 0.534351 20.8112 1.39859L20.673 2.71822C20.1332 2.94468 19.6258 3.23518 19.1564 3.58669L17.9291 3.04305C17.1537 2.65151 16.1827 3.25359 15.3815 4.62954C14.5775 6.00963 14.5386 7.14505 15.2734 7.61268L16.3529 8.38785C16.3167 8.6789 16.2984 8.97281 16.2984 9.26662C16.2984 9.55565 16.3161 9.84505 16.3512 10.1318L15.2712 10.9074C14.9952 11.0856 14.6188 11.5056 14.7991 12.4317C14.8854 12.8749 15.0922 13.3925 15.3813 13.8888C16.1824 15.2643 17.1531 15.8664 17.9284 15.4758L19.144 14.9373C19.6173 15.2933 20.1294 15.5872 20.6747 15.8157L20.8112 17.1197C20.8525 17.9841 21.8639 18.5183 23.4716 18.5183C25.075 18.5183 26.0868 17.9856 26.1318 17.1237L26.2687 15.8156C26.814 15.587 27.3261 15.2931 27.7993 14.9371L28.8986 15.4239C29.5521 16.9424 29.8832 18.556 29.8832 20.2226C29.8832 25.6302 26.3456 30.3611 21.1956 31.9406C20.723 31.1653 19.8643 30.6629 18.8856 30.6629H16.1609C14.6739 30.6629 13.4641 31.8574 13.4641 33.3316C13.4641 34.8054 14.6739 36 16.1609 36H18.8855C20.2912 36 21.4492 34.9159 21.5716 33.5534C24.2949 32.7389 26.7437 31.0929 28.5232 28.8686C29.6063 27.5149 30.4105 25.9701 30.9173 24.4058H32.4606C33.8817 24.4058 35 23.2482 35 21.8397ZM23.4714 12.4185C25.2244 12.4185 26.6506 11.0049 26.6506 9.26754C26.6506 7.53014 25.2244 6.11656 23.4714 6.11656C21.7185 6.11656 20.2924 7.53005 20.2924 9.26754C20.2924 11.005 21.7186 12.4185 23.4714 12.4185ZM5.19894 20.2228C5.19894 15.2025 8.3533 10.6105 13.0749 8.79613C13.5051 8.63078 13.7007 8.15108 13.534 7.72476C13.3672 7.29816 12.8832 7.08661 12.4529 7.25188C9.84308 8.2547 7.63204 9.99219 6.02473 12.2765C4.37955 14.6146 3.52785 17.3625 3.52785 20.2229V22.7495H2.58573C2.08617 22.7495 1.67109 22.335 1.67109 21.8397V18.0631C1.67109 17.6781 1.93512 17.3262 2.30712 17.2075C2.74643 17.0674 2.98995 16.6008 2.84855 16.1654C2.70716 15.7301 2.2335 15.4907 1.79391 15.6309C0.722838 15.9727 0 16.9501 0 18.0631V21.8397C0 23.2483 1.16466 24.4059 2.58573 24.4059H4.32747C4.78897 24.4059 5.19894 24.0234 5.19894 23.566V20.2228ZM24.9795 9.26754C24.9795 8.44343 24.303 7.77289 23.4714 7.77289C22.64 7.77289 21.9635 8.44343 21.9635 9.26754C21.9635 10.0917 22.64 10.7622 23.4714 10.7622C24.303 10.7622 24.9795 10.0917 24.9795 9.26754ZM19.9113 33.319C19.9113 33.2513 19.9046 33.1769 19.8919 33.1129C19.8908 33.1084 19.8898 33.1057 19.8888 33.1032C19.8877 33.1004 19.8867 33.0977 19.8857 33.0927C19.7816 32.6406 19.3727 32.3194 18.8856 32.3194H16.1609C15.5953 32.3194 15.1352 32.7708 15.1352 33.3314C15.1352 33.8922 15.5953 34.3438 16.1609 34.3438H18.8856C19.4512 34.3439 19.9113 33.8795 19.9113 33.319ZM30.5044 6.40448L29.1933 7.34592C28.9283 7.53622 28.7998 7.86242 28.8647 8.18035C28.937 8.53581 28.9738 8.90131 28.9738 9.26672C28.9738 9.6289 28.9379 9.99053 28.867 10.3414C28.8028 10.659 28.9314 10.9846 29.196 11.1746L30.5045 12.1141C30.4663 12.308 30.3547 12.6484 30.1144 13.0608C29.8744 13.473 29.633 13.7387 29.4827 13.8686L28.0101 13.2165C27.7108 13.084 27.3612 13.1371 27.1156 13.3524C26.5598 13.8399 25.9236 14.2052 25.2247 14.4378C24.9143 14.5412 24.6935 14.8147 24.6597 15.1375L24.4937 16.7236C24.3051 16.7877 23.9521 16.8622 23.4716 16.8622C22.9913 16.8622 22.6383 16.7878 22.4498 16.7237L22.2837 15.1374C22.2499 14.8146 22.0289 14.5411 21.7185 14.4378C21.0198 14.2053 20.3836 13.8401 19.8275 13.3525C19.582 13.1373 19.2322 13.0841 18.933 13.2167L17.4605 13.8688C17.3102 13.7391 17.0687 13.4732 16.8285 13.0608C16.5883 12.6487 16.4768 12.3084 16.4386 12.1145L17.747 11.1748C18.0114 10.9849 18.14 10.6596 18.0762 10.3421C18.0052 9.9898 17.9693 9.62807 17.9693 9.26672C17.9693 8.90122 18.006 8.53572 18.0784 8.18025C18.1432 7.86224 18.0146 7.53603 17.7495 7.34565L16.4385 6.40421C16.4766 6.21023 16.5882 5.86995 16.8284 5.4577C17.0686 5.04537 17.3101 4.77953 17.4605 4.64978L18.9441 5.30698C19.2426 5.4393 19.5917 5.38676 19.8372 5.17245C20.3905 4.68944 21.0229 4.32735 21.7171 4.09611C22.0273 3.99268 22.2481 3.7192 22.2819 3.39649L22.4496 1.79482C22.6381 1.73077 22.9912 1.65633 23.4714 1.65633C23.9519 1.65633 24.3049 1.73077 24.4934 1.79491L24.6609 3.39649C24.6947 3.71929 24.9155 3.99277 25.2258 4.0962C25.9195 4.32726 26.5521 4.68954 27.1058 5.17263C27.3512 5.38676 27.7002 5.43939 27.9987 5.30716L29.4825 4.65015C29.6328 4.7799 29.8743 5.04574 30.1144 5.45798C30.3547 5.87032 30.4662 6.2106 30.5044 6.40448Z"></path></svg>