<svg width="51" height="58" viewBox="0 0 51 58" fill="none" xmlns="http://www.w3.org/2000/svg"><rect x="0.5" y="0.5" width="50" height="57" rx="0.5" stroke="#6E52DD"/><rect x="4.5" y="8.5" width="6" height="6" rx="0.5" stroke="#6E52DD"/><rect x="13.5" y="8.5" width="6" height="6" rx="0.5" stroke="#6E52DD"/><rect x="22.5" y="8.5" width="6" height="6" rx="0.5" stroke="#6E52DD"/><rect x="31.5" y="8.5" width="6" height="6" rx="0.5" stroke="#6E52DD"/><rect x="40.5" y="8.5" width="6" height="6" rx="0.5" stroke="#6E52DD"/><rect x="4.5" y="17.5" width="6" height="6" rx="0.5" stroke="#6E52DD"/><rect x="13.5" y="17.5" width="6" height="6" rx="0.5" stroke="#6E52DD"/><rect x="22.5" y="17.5" width="6" height="6" rx="0.5" fill="#6E52DD" stroke="#6E52DD"/><rect x="31.5" y="17.5" width="6" height="6" rx="0.5" stroke="#6E52DD"/><rect x="40.5" y="17.5" width="6" height="6" rx="0.5" stroke="#6E52DD"/><rect x="4.5" y="26.5" width="6" height="6" rx="0.5" stroke="#6E52DD"/><rect x="13.5" y="26.5" width="6" height="6" rx="0.5" stroke="#6E52DD"/><rect x="22.5" y="26.5" width="6" height="6" rx="0.5" stroke="#6E52DD"/><rect x="31.5" y="26.5" width="6" height="6" rx="0.5" stroke="#6E52DD"/><rect x="40.5" y="26.5" width="6" height="6" rx="0.5" stroke="#6E52DD"/><rect x="4.5" y="35.5" width="6" height="6" rx="0.5" stroke="#6E52DD"/><rect x="13.5" y="35.5" width="6" height="6" rx="0.5" stroke="#6E52DD"/><rect x="22.5" y="35.5" width="6" height="6" rx="0.5" stroke="#6E52DD"/><rect x="31.5" y="35.5" width="6" height="6" rx="0.5" fill="#6E52DD" stroke="#6E52DD"/><rect x="40.5" y="35.5" width="6" height="6" rx="0.5" stroke="#6E52DD"/><rect x="4.5" y="44.5" width="6" height="6" rx="0.5" fill="#6E52DD" stroke="#6E52DD"/><rect x="13.5" y="44.5" width="6" height="6" rx="0.5" stroke="#6E52DD"/><rect x="22.5" y="44.5" width="6" height="6" rx="0.5" stroke="#6E52DD"/><rect x="31.5" y="44.5" width="6" height="6" rx="0.5" stroke="#6E52DD"/><rect x="40.5" y="44.5" width="6" height="6" rx="0.5" stroke="#6E52DD"/></svg>