<svg xmlns="http://www.w3.org/2000/svg" width="30" height="25" viewBox="0 0 30 25"><path d="M28.3322 21H25.0156V20.0892H28.3322C28.7352 20.0892 29.0629 19.7708 29.0629 19.379V13.6207C29.0629 13.229 28.7352 12.9105 28.3322 12.9105H14.6676C14.2648 12.9105 13.9368 13.229 13.9368 13.6207V19.379C13.9368 19.7708 14.2648 20.0892 14.6676 20.0892H18.1165V21H14.6676C13.748 21 13 20.2728 13 19.379V13.6207C13 12.727 13.748 12 14.6676 12H28.3322C29.252 12 30 12.727 30 13.6207V19.379C30 20.273 29.252 21 28.3322 21Z"></path><path d="M25.5215 25H18.4782C18.2141 25 18 24.7832 18 24.5157V17.4843C18 17.2168 18.2141 17 18.4782 17C18.7423 17 18.9564 17.2168 18.9564 17.4843V24.0312H25.0433V17.4843C25.0433 17.2168 25.2574 17 25.5215 17C25.7859 17 26 17.2168 26 17.4843V24.5157C26 24.7832 25.7859 25 25.5215 25Z"></path><path d="M27.5584 18H16.4418C16.1977 18 16 17.7761 16 17.5C16 17.2239 16.1977 17 16.4418 17H27.5584C27.8023 17 28 17.2239 28 17.5C28 17.7761 27.8023 18 27.5584 18Z"></path><path d="M24.4999 16C24.2238 16 24 15.799 24 15.5511V14.4491C24 14.201 24.2238 14 24.4999 14C24.7762 14 25 14.201 25 14.4491V15.5511C25 15.799 24.7762 16 24.4999 16Z"></path><path d="M22.5001 16C22.2238 16 22 15.799 22 15.5511V14.4491C22 14.201 22.2238 14 22.5001 14C22.7762 14 23 14.201 23 14.4491V15.5511C23 15.799 22.7762 16 22.5001 16Z"></path><path d="M26.4999 16C26.2238 16 26 15.799 26 15.5511V14.4491C26 14.201 26.2238 14 26.4999 14C26.7762 14 27 14.201 27 14.4491V15.5511C27 15.799 26.7762 16 26.4999 16Z"></path><path d="M3.05355 21C1.36974 21 0 19.5835 0 17.8426V3.15743C0 1.41649 1.36974 0 3.05355 0H19.9465C21.6303 0 23 1.41649 23 3.15743V12.3526C23 12.6122 22.7964 12.8227 22.5453 12.8227C22.2939 12.8227 22.0903 12.6122 22.0903 12.3526V3.15743C22.0903 1.93494 21.1286 0.940561 19.9465 0.940561H3.05355C1.87143 0.940561 0.909692 1.93494 0.909692 3.15743V17.8426C0.909692 19.0651 1.87143 20.0594 3.05355 20.0594H13.4603C13.7114 20.0594 13.915 20.27 13.915 20.5299C13.915 20.7895 13.7114 21 13.4603 21H3.05355Z"></path><path d="M22.5453 6H0.454719C0.203621 6 0 5.7761 0 5.5C0 5.2239 0.203621 5 0.454719 5H22.5453C22.7964 5 23 5.2239 23 5.5C23 5.7761 22.7964 6 22.5453 6Z"></path><path fill-rule="evenodd" clip-rule="evenodd" d="M5 3.0001C5 3.55138 5.44857 4 6 4C6.55143 4 7 3.55138 7 3.0001C7 2.44862 6.55143 2 6 2C5.44857 2 5 2.44862 5 3.0001ZM5.7156 3.0001C5.7156 2.8433 5.84322 2.71567 6 2.71567C6.15678 2.71567 6.2844 2.8433 6.2844 3.0001C6.2844 3.1569 6.15678 3.28453 6 3.28453C5.84322 3.28453 5.7156 3.1569 5.7156 3.0001Z"></path><path fill-rule="evenodd" clip-rule="evenodd" d="M2 2.9999C2 3.55138 2.44857 4 3 4C3.55143 4 4 3.55138 4 2.9999C4 2.44862 3.55143 2 3 2C2.44857 2 2 2.44842 2 2.9999ZM2.7156 2.9999C2.7156 2.8431 2.84322 2.71547 3 2.71547C3.15678 2.71547 3.2844 2.8431 3.2844 2.9999C3.2844 3.1567 3.15678 3.28433 3 3.28433C2.84322 3.28433 2.7156 3.1567 2.7156 2.9999Z"></path><path fill-rule="evenodd" clip-rule="evenodd" d="M8 3C8 3.55143 8.44857 4 9 4C9.55143 4 10 3.55143 10 3C10 2.44857 9.55143 2 9 2C8.44857 2 8 2.44857 8 3ZM8.7156 3C8.7156 2.84322 8.84322 2.7156 9 2.7156C9.15678 2.7156 9.2844 2.84322 9.2844 3C9.2844 3.15678 9.15678 3.2844 9 3.2844C8.84322 3.2844 8.7156 3.15678 8.7156 3Z"></path></svg>