<svg xmlns="http://www.w3.org/2000/svg" width="24" height="24" viewBox="0 0 31 31"><path fill="#6e52dd" d="M22.2 18.3C23 18.3 23.8 18.6 24.4 19.3L28 22.9C28.7 23.5 29 24.3 29 25.1 29 25.9 28.7 26.7 28 27.3 27.7 27.6 27.4 27.9 27.2 28.2 27.1 28.2 27.1 28.2 27.1 28.3 26.7 28.6 26.3 29 26 29.4 26 29.4 26 29.4 26 29.4 26 29.4 26 29.4 26 29.4 25 30.5 23.7 31 22.2 31 22.1 31 22 31 21.8 31 19.6 30.8 17.6 30 16.1 29.3 12.2 27.4 8.7 24.7 5.9 21.3 3.5 18.5 1.9 15.9 0.9 13 0.4 11.9-0.1 10.1 0 8.2 0.1 7 0.6 6 1.4 5.2L3.7 3 3.7 3C4.3 2.3 5.1 2 5.9 2 6.7 2 7.4 2.3 8.1 3 8.5 3.3 8.9 3.8 9.3 4.2 9.5 4.4 9.7 4.6 9.9 4.8L9.9 4.8 11.7 6.6C13.1 7.9 13.1 9.7 11.7 11 11.6 11.1 11.5 11.2 11.4 11.3 11.3 11.4 11.2 11.5 11.1 11.6 11.1 11.6 11.1 11.7 11 11.7 10.6 12.2 10.1 12.6 9.6 13.1 10 14 10.6 14.8 11.4 15.9 13.1 17.9 14.8 19.5 16.8 20.7 17 20.8 17.2 21 17.4 21.1 17.5 21.1 17.5 21.1 17.6 21.2 17.7 21.2 17.8 21.3 17.9 21.3L20 19.3C20.6 18.6 21.4 18.3 22.2 18.3ZM26.1 26.8C26.3 26.6 26.5 26.4 26.7 26.1 27.4 25.4 27.4 24.8 26.7 24.1L23.1 20.5 23.1 20.5C22.9 20.3 22.6 20 22.2 20 21.8 20 21.4 20.3 21.2 20.5L19 22.7C18.9 22.8 18.5 23.2 18 23.2 17.8 23.2 17.6 23.1 17.3 23 17.3 23 17.3 23 17.3 23 17.3 23 17.3 23 17.3 23 17.1 22.9 16.8 22.7 16.6 22.6 16.4 22.5 16.1 22.4 15.8 22.2 13.7 20.9 11.8 19.2 10 16.9L10 16.9C9 15.7 8.4 14.6 7.9 13.5L7.9 13.5C7.8 13.1 7.7 12.5 8.2 12 8.2 12 8.2 12 8.2 12 8.2 12 8.3 12 8.3 12 8.8 11.4 9.3 10.9 9.9 10.4 10 10.2 10.1 10.1 10.3 10 10.3 9.9 10.4 9.9 10.5 9.8 11.1 9.1 11.1 8.5 10.5 7.8L8.7 6C8.6 5.9 8.5 5.8 8.4 5.7 8.3 5.6 8.2 5.5 8.1 5.4 7.7 5 7.3 4.6 6.9 4.2L6.9 4.2C6.7 4 6.3 3.8 5.9 3.8 5.6 3.8 5.2 3.9 4.9 4.2L2.7 6.4C2.1 7 1.9 7.6 1.8 8.4 1.7 9.5 1.9 10.8 2.5 12.4 3.5 15.1 5 17.5 7.2 20.2 9.9 23.4 13.2 25.9 16.8 27.7 18.2 28.4 20 29.1 21.9 29.2 22 29.3 22.1 29.3 22.2 29.3 23.3 29.3 24 28.9 24.7 28.2 25.1 27.7 25.5 27.3 26 26.9 26 26.9 26.1 26.8 26.1 26.8Z"></path><path fill="#6e52dd" d="M16.7 7.7C18.4 8 19.9 8.7 21 9.9 22.2 11.1 23 12.6 23.3 14.3 23.4 14.7 23.7 15 24.1 15 24.2 15 24.2 15 24.3 15 24.8 14.9 25.1 14.5 25 14 24.6 12 23.7 10.2 22.3 8.7 20.8 7.3 19 6.4 17 6 16.5 5.9 16.1 6.2 16 6.7 15.9 7.2 16.2 7.6 16.7 7.7Z"></path><path fill="#6e52dd" d="M31 14C30.4 10.5 28.7 7.3 26.2 4.8 23.7 2.3 20.5 0.6 17 0 16.6-0.1 16.1 0.3 16 0.7 15.9 1.2 16.3 1.7 16.8 1.8 19.9 2.3 22.7 3.8 25 6 27.2 8.3 28.7 11.1 29.2 14.3 29.3 14.7 29.7 15 30.1 15 30.2 15 30.2 15 30.3 15 30.7 14.9 31.1 14.4 31 14Z"></path></svg>