<svg xmlns="http://www.w3.org/2000/svg" width="20" height="26" viewBox="0 0 20 26"><path d="M0.45453 20C0.705419 20 0.909059 19.8052 0.909059 19.5652V2.17393C0.909059 1.54 1.60995 0.869583 2.2727 0.869583H17.7273C18.3901 0.869583 19.0909 1.54 19.0909 2.17393C19.0909 2.41391 19.2946 2.6087 19.5455 2.6087C19.7964 2.6087 20 2.41391 20 2.17393C20.0001 1.05652 18.8955 0 17.7274 0H2.2727C1.10455 0 0 1.05652 0 2.17393V19.5652C0 19.8052 0.203641 20 0.45453 20Z"/><path d="M19.5454 4H2.27269C2.0218 4 1.81816 4.18954 1.81816 4.42306C1.81816 4.65658 2.0218 4.84612 2.27269 4.84612H19.0908V23.8846C19.0908 24.5015 18.39 25.1538 17.7272 25.1538H2.27269C1.60994 25.1538 0.909055 24.5015 0.909055 23.8846V21.7692H17.7272C17.9781 21.7692 18.1817 21.5797 18.1817 21.3461C18.1817 21.1126 17.9781 20.9231 17.7272 20.9231H0.454527C0.20364 20.9231 0 21.1126 0 21.3461V23.8846C0 24.9719 1.10454 26 2.27274 26H17.7273C18.8955 26 20 24.9719 20 23.8846V4.42306C19.9999 4.18954 19.7963 4 19.5454 4Z"/><path d="M10.4963 2C10.221 2 10 2.22401 10 2.5C10 2.77599 10.226 3 10.5013 3C10.7771 3 11 2.77599 11 2.5C11 2.22401 10.7771 2 10.5013 2H10.4963Z"/><path d="M9 23C9 23.5515 9.44847 24 10 24C10.5515 24 11 23.5515 11 23C11 22.4485 10.5515 22 10 22C9.44847 22 9 22.4485 9 23Z"/></svg>