<svg width="23" height="23" viewBox="0 0 23 23" xmlns="http://www.w3.org/2000/svg"><path d="M21.8852 21.3288L22.2394 20.9758L22.239 20.9754L21.8852 21.3288ZM15.7668 15.2019L15.4195 14.8423L15.0537 15.1955L15.413 15.5553L15.7668 15.2019ZM21.8737 21.8894L22.2129 22.2568L22.2135 22.2561L21.8737 21.8894ZM21.2915 21.8783L21.6463 21.526L21.6453 21.525L21.2915 21.8783ZM15.1582 15.7364L15.512 15.3831L15.1959 15.0665L14.8462 15.3457L15.1582 15.7364ZM22.239 20.9754L16.1206 14.8486L15.413 15.5553L21.5315 21.6821L22.239 20.9754ZM22.2135 22.2561C22.5849 21.912 22.597 21.3345 22.2394 20.9758L21.5311 21.6817C21.5119 21.6625 21.4994 21.6328 21.5 21.6012C21.5007 21.5695 21.5144 21.5407 21.5339 21.5226L22.2135 22.2561ZM21.5884 22.5C21.8102 22.5 22.0358 22.4203 22.2129 22.2568L21.5346 21.522C21.5519 21.506 21.5724 21.5 21.5884 21.5V22.5ZM20.9367 22.2306C21.118 22.4132 21.3567 22.5 21.5884 22.5V21.5C21.6034 21.5 21.6264 21.506 21.6463 21.526L20.9367 22.2306ZM14.8044 16.0897L20.9377 22.2316L21.6453 21.525L15.512 15.3831L14.8044 16.0897ZM9.64711 18.1522C11.8563 18.1522 13.8866 17.3915 15.4702 16.1271L14.8462 15.3457C13.4354 16.4721 11.624 17.1522 9.64711 17.1522V18.1522ZM0.5 9.3261C0.5 14.2111 4.6207 18.1522 9.64711 18.1522V17.1522C5.13699 17.1522 1.5 13.6235 1.5 9.3261H0.5ZM9.64711 0.5C4.6207 0.5 0.5 4.44105 0.5 9.3261H1.5C1.5 5.02865 5.13699 1.5 9.64711 1.5V0.5ZM18.7942 9.3261C18.7942 4.44105 14.6735 0.5 9.64711 0.5V1.5C14.1572 1.5 17.7942 5.02865 17.7942 9.3261H18.7942ZM16.1141 15.5616C17.7657 13.9668 18.7942 11.7619 18.7942 9.3261H17.7942C17.7942 11.4728 16.8891 13.4231 15.4195 14.8423L16.1141 15.5616ZM9.64711 16.3592C5.59117 16.3592 2.32353 13.1862 2.32353 9.3261H1.32353C1.32353 13.7738 5.07488 17.3592 9.64711 17.3592V16.3592ZM16.9707 9.3261C16.9707 13.1862 13.7027 16.3592 9.64711 16.3592V17.3592C14.2189 17.3592 17.9707 13.7738 17.9707 9.3261H16.9707ZM9.64711 2.29296C13.7031 2.29296 16.9707 5.46597 16.9707 9.3261H17.9707C17.9707 4.87837 14.2193 1.29296 9.64711 1.29296V2.29296ZM2.32353 9.3261C2.32353 5.46597 5.59117 2.29296 9.64711 2.29296V1.29296C5.07488 1.29296 1.32353 4.87837 1.32353 9.3261H2.32353Z"></path></svg>