<svg xmlns="http://www.w3.org/2000/svg" width="28" height="28" viewBox="0 0 28 28"><path d="M6 7.5C6 6.67157 6.67157 6 7.5 6C8.32843 6 9 6.67157 9 7.5C9 8.32843 8.32843 9 7.5 9C6.67157 9 6 8.32843 6 7.5Z"></path><path d="M6 13.5C6 12.6716 6.67157 12 7.5 12C8.32843 12 9 12.6716 9 13.5C9 14.3284 8.32843 15 7.5 15C6.67157 15 6 14.3284 6 13.5Z"></path><path d="M6 20.5C6 19.6716 6.67157 19 7.5 19C8.32843 19 9 19.6716 9 20.5C9 21.3284 8.32843 22 7.5 22C6.67157 22 6 21.3284 6 20.5Z"></path><path d="M13 7.5C13 6.67157 13.6716 6 14.5 6C15.3284 6 16 6.67157 16 7.5C16 8.32843 15.3284 9 14.5 9C13.6716 9 13 8.32843 13 7.5Z"></path><path d="M13 13.5C13 12.6716 13.6716 12 14.5 12C15.3284 12 16 12.6716 16 13.5C16 14.3284 15.3284 15 14.5 15C13.6716 15 13 14.3284 13 13.5Z"></path><path d="M13 20.5C13 19.6716 13.6716 19 14.5 19C15.3284 19 16 19.6716 16 20.5C16 21.3284 15.3284 22 14.5 22C13.6716 22 13 21.3284 13 20.5Z"></path><path d="M20 7.5C20 6.67157 20.6716 6 21.5 6C22.3284 6 23 6.67157 23 7.5C23 8.32843 22.3284 9 21.5 9C20.6716 9 20 8.32843 20 7.5Z"></path><path d="M20 13.5C20 12.6716 20.6716 12 21.5 12C22.3284 12 23 12.6716 23 13.5C23 14.3284 22.3284 15 21.5 15C20.6716 15 20 14.3284 20 13.5Z"></path><path d="M20 20.5C20 19.6716 20.6716 19 21.5 19C22.3284 19 23 19.6716 23 20.5C23 21.3284 22.3284 22 21.5 22C20.6716 22 20 21.3284 20 20.5Z"></path></svg>