<svg width="68" height="43" viewBox="0 0 68 43" fill="none" xmlns="http://www.w3.org/2000/svg">
<path fill-rule="evenodd" clip-rule="evenodd" d="M64 3H4C2.34315 3 1 4.34315 1 6V35C1 36.6569 2.34315 38 4 38H64C65.6569 38 67 36.6569 67 35V6C67 4.34315 65.6569 3 64 3ZM4 2C1.79086 2 0 3.79086 0 6V35C0 37.2091 1.79086 39 4 39H64C66.2091 39 68 37.2091 68 35V6C68 3.79086 66.2091 2 64 2H4Z" fill="#6E52DD"/>
<path fill-rule="evenodd" clip-rule="evenodd" d="M64 5H4C2.34315 5 1 6.34315 1 8V37C1 38.6569 2.34315 40 4 40H64C65.6569 40 67 38.6569 67 37V8C67 6.34315 65.6569 5 64 5ZM4 4C1.79086 4 0 5.79086 0 8V37C0 39.2091 1.79086 41 4 41H64C66.2091 41 68 39.2091 68 37V8C68 5.79086 66.2091 4 64 4H4Z" fill="#6E52DD"/>
<path fill-rule="evenodd" clip-rule="evenodd" d="M64 7H4C2.34315 7 1 8.34315 1 10V39C1 40.6569 2.34315 42 4 42H64C65.6569 42 67 40.6569 67 39V10C67 8.34315 65.6569 7 64 7ZM4 6C1.79086 6 0 7.79086 0 10V39C0 41.2091 1.79086 43 4 43H64C66.2091 43 68 41.2091 68 39V10C68 7.79086 66.2091 6 64 6H4Z" fill="#6E52DD"/>
<path d="M0 4C0 1.79086 1.79086 0 4 0H64C66.2091 0 68 1.79086 68 4V33C68 35.2091 66.2091 37 64 37H4C1.79086 37 0 35.2091 0 33V4Z" fill="white"/>
<path fill-rule="evenodd" clip-rule="evenodd" d="M64 1H4C2.34315 1 1 2.34315 1 4V33C1 34.6569 2.34315 36 4 36H64C65.6569 36 67 34.6569 67 33V4C67 2.34315 65.6569 1 64 1ZM4 0C1.79086 0 0 1.79086 0 4V33C0 35.2091 1.79086 37 4 37H64C66.2091 37 68 35.2091 68 33V4C68 1.79086 66.2091 0 64 0H4Z" fill="#6E52DD"/>
<path d="M19.4761 15.048L20.3301 16.378L21.5341 15.468V23H23.1441V13.172H21.9821L19.4761 15.048Z" fill="#6E52DD"/>
<path d="M28.1643 18.1C28.1643 21.096 29.2283 23.112 31.4823 23.112C33.7223 23.112 34.7303 21.096 34.7303 18.1C34.7303 15.104 33.6943 13.088 31.4543 13.088C29.2003 13.088 28.1643 15.104 28.1643 18.1ZM29.8863 18.1C29.8863 15.734 30.3483 14.6 31.4543 14.6C32.5743 14.6 33.0223 15.678 33.0223 18.1C33.0223 20.522 32.6023 21.614 31.4823 21.614C30.4323 21.614 29.8863 20.494 29.8863 18.1Z" fill="#6E52DD"/>
<path d="M35.9162 18.1C35.9162 21.096 36.9802 23.112 39.2342 23.112C41.4742 23.112 42.4822 21.096 42.4822 18.1C42.4822 15.104 41.4462 13.088 39.2062 13.088C36.9522 13.088 35.9162 15.104 35.9162 18.1ZM37.6382 18.1C37.6382 15.734 38.1002 14.6 39.2062 14.6C40.3262 14.6 40.7742 15.678 40.7742 18.1C40.7742 20.522 40.3542 21.614 39.2342 21.614C38.1842 21.614 37.6382 20.494 37.6382 18.1Z" fill="#6E52DD"/>
<path d="M43.6682 18.1C43.6682 21.096 44.7322 23.112 46.9862 23.112C49.2262 23.112 50.2342 21.096 50.2342 18.1C50.2342 15.104 49.1982 13.088 46.9582 13.088C44.7042 13.088 43.6682 15.104 43.6682 18.1ZM45.3902 18.1C45.3902 15.734 45.8522 14.6 46.9582 14.6C48.0782 14.6 48.5262 15.678 48.5262 18.1C48.5262 20.522 48.1062 21.614 46.9862 21.614C45.9362 21.614 45.3902 20.494 45.3902 18.1Z" fill="#6E52DD"/>
</svg>
