<svg width="44" height="30" viewBox="0 0 44 30" fill="none" xmlns="http://www.w3.org/2000/svg">
<mask id="mask0" mask-type="alpha" maskUnits="userSpaceOnUse" x="0" y="0" width="44" height="30">
<rect width="44" height="30" fill="white"/>
</mask>
<g mask="url(#mask0)">
<path d="M24.68 8.336C24.68 9.708 24.33 10.926 23.63 11.99C22.958 13.054 22.188 13.95 21.32 14.678C20.48 15.406 19.668 15.98 18.884 16.4C18.128 16.82 17.666 17.072 17.498 17.156C17.302 17.268 17.19 17.408 17.162 17.576C17.134 17.716 17.12 17.856 17.12 17.996C17.12 18.416 17.162 18.906 17.246 19.466C17.33 20.026 17.442 20.614 17.582 21.23C17.722 21.818 17.876 22.392 18.044 22.952C18.212 23.512 18.38 23.974 18.548 24.338C18.744 24.814 18.954 25.29 19.178 25.766C19.43 26.242 19.752 26.76 20.144 27.32C20.312 27.572 20.242 27.838 19.934 28.118C19.654 28.398 19.276 28.65 18.8 28.874C18.324 29.07 17.806 29.238 17.246 29.378C16.714 29.518 16.28 29.588 15.944 29.588C15.664 29.588 15.328 29.518 14.936 29.378C14.572 29.238 14.208 29.056 13.844 28.832C13.48 28.58 13.144 28.314 12.836 28.034C12.528 27.726 12.29 27.418 12.122 27.11C11.814 26.55 11.59 25.92 11.45 25.22C11.31 24.52 11.212 23.792 11.156 23.036C11.128 22.252 11.1 21.454 11.072 20.642C11.072 19.802 11.058 18.962 11.03 18.122C11.03 17.842 10.96 17.702 10.82 17.702C10.68 17.674 10.568 17.772 10.484 17.996C10.372 18.276 10.232 18.752 10.064 19.424C9.896 20.068 9.7 20.796 9.476 21.608C9.28 22.42 9.042 23.26 8.762 24.128C8.482 24.996 8.188 25.794 7.88 26.522C7.6 27.222 7.306 27.81 6.998 28.286C6.69 28.734 6.368 28.958 6.032 28.958C5.696 28.958 5.43 28.916 5.234 28.832C5.066 28.72 4.912 28.594 4.772 28.454C4.66 28.314 4.534 28.174 4.394 28.034C4.254 27.866 4.086 27.726 3.89 27.614C3.554 27.418 3.204 27.264 2.84 27.152C2.504 27.04 2.196 26.9 1.916 26.732C1.636 26.564 1.412 26.326 1.244 26.018C1.048 25.71 0.95 25.276 0.95 24.716C0.95 24.324 1.104 23.68 1.412 22.784C1.72 21.888 2.098 20.866 2.546 19.718C3.022 18.57 3.54 17.366 4.1 16.106C4.688 14.846 5.248 13.642 5.78 12.494C6.312 11.318 6.788 10.268 7.208 9.344C7.628 8.42 7.922 7.72 8.09 7.244C8.202 6.88 8.202 6.53 8.09 6.194C7.978 5.83 7.838 5.466 7.67 5.102C7.53 4.738 7.46 4.276 7.46 3.716C7.46 2.904 7.74 2.372 8.3 2.12C9.224 1.728 10.344 1.42 11.66 1.196C13.004 0.971999 14.516 0.859999 16.196 0.859999C17.288 0.859999 18.338 1.028 19.346 1.364C20.382 1.7 21.292 2.19 22.076 2.834C22.86 3.45 23.49 4.234 23.966 5.186C24.442 6.11 24.68 7.16 24.68 8.336ZM18.506 8.168C18.506 7.748 18.366 7.398 18.086 7.118C17.806 6.838 17.386 6.698 16.826 6.698C16.434 6.698 16.168 6.726 16.028 6.782C15.888 6.81 15.692 6.852 15.44 6.908C15.272 6.964 15.132 7.076 15.02 7.244C14.824 7.552 14.614 7.916 14.39 8.336C14.166 8.728 13.942 9.148 13.718 9.596C13.522 10.044 13.326 10.492 13.13 10.94C12.962 11.388 12.822 11.808 12.71 12.2C12.654 12.424 12.724 12.536 12.92 12.536C13.144 12.536 13.34 12.522 13.508 12.494C13.844 12.438 14.292 12.298 14.852 12.074C15.412 11.85 15.958 11.556 16.49 11.192C17.05 10.8 17.526 10.352 17.918 9.848C18.31 9.344 18.506 8.784 18.506 8.168Z" fill="white"/>
<path d="M43.0573 6.236C43.0573 6.824 42.6793 7.65 41.9233 8.714C41.1673 9.75 40.2013 10.968 39.0253 12.368C37.8493 13.74 36.5473 15.224 35.1193 16.82C33.7193 18.416 32.3753 20.054 31.0873 21.734C30.9473 21.958 30.8633 22.14 30.8353 22.28C30.8353 22.392 30.9753 22.448 31.2553 22.448C32.0393 22.448 32.8933 22.336 33.8173 22.112C34.7693 21.888 35.6513 21.776 36.4633 21.776C37.0233 21.776 37.4993 22.014 37.8913 22.49C38.3113 22.938 38.5213 23.428 38.5213 23.96C38.5213 24.184 38.4513 24.534 38.3113 25.01C38.1993 25.486 38.0033 25.976 37.7233 26.48C37.4713 26.956 37.1353 27.39 36.7153 27.782C36.3233 28.146 35.8613 28.328 35.3293 28.328C34.6853 28.328 33.8873 28.286 32.9353 28.202C32.0113 28.09 30.9333 28.104 29.7013 28.244C29.2253 28.3 28.7353 28.398 28.2313 28.538C27.7273 28.65 27.2233 28.776 26.7193 28.916C26.2153 29.056 25.7113 29.168 25.2073 29.252C24.7313 29.364 24.2833 29.42 23.8633 29.42C23.4153 29.42 23.0793 29.294 22.8553 29.042C22.7153 28.874 22.5333 28.622 22.3093 28.286C22.0573 27.922 21.8193 27.544 21.5953 27.152C21.3433 26.732 21.1333 26.326 20.9653 25.934C20.7973 25.542 20.7133 25.22 20.7133 24.968C20.7133 24.576 21.0213 23.932 21.6373 23.036C22.2533 22.14 23.0233 21.132 23.9473 20.012C24.8713 18.864 25.8933 17.674 27.0133 16.442C28.1333 15.182 29.1973 14.02 30.2053 12.956C31.2133 11.864 32.0953 10.912 32.8513 10.1C33.6353 9.288 34.1393 8.742 34.3633 8.462C34.6993 8.07 34.6293 7.874 34.1533 7.874C33.9013 7.874 33.5373 7.944 33.0613 8.084C32.5853 8.196 32.0953 8.336 31.5913 8.504C31.1153 8.672 30.6673 8.826 30.2473 8.966C29.8273 9.078 29.5473 9.134 29.4073 9.134C29.1553 9.134 28.9033 8.938 28.6513 8.546C28.3993 8.126 28.1753 7.65 27.9793 7.118C27.7833 6.558 27.6153 6.026 27.4753 5.522C27.3633 4.99 27.3073 4.612 27.3073 4.388C27.3073 3.996 27.3773 3.716 27.5173 3.548C27.6573 3.324 28.0073 3.114 28.5673 2.918C29.1553 2.694 29.8413 2.512 30.6253 2.372C31.4093 2.204 32.2493 2.064 33.1453 1.952C34.0693 1.84 34.9513 1.756 35.7913 1.7C36.6313 1.616 37.3733 1.56 38.0173 1.532C38.6893 1.476 39.1793 1.448 39.4873 1.448C39.7113 1.448 39.9213 1.462 40.1173 1.49C40.3133 1.518 40.4813 1.588 40.6213 1.7C40.7893 1.84 41.0133 2.106 41.2933 2.498C41.5733 2.89 41.8393 3.324 42.0913 3.8C42.3713 4.276 42.5953 4.752 42.7633 5.228C42.9593 5.676 43.0573 6.012 43.0573 6.236Z" fill="#F8E71C"/>
</g>
</svg>
