<svg width="164" height="50" viewBox="0 0 164 50" fill="none" xmlns="http://www.w3.org/2000/svg">
<mask id="mask0" mask-type="alpha" maskUnits="userSpaceOnUse" x="0" y="0" width="164" height="50">
<rect width="164" height="50" fill="white"/>
</mask>
<g mask="url(#mask0)">
<path fill-rule="evenodd" clip-rule="evenodd" d="M150.5 27C157.956 27 164 20.9558 164 13.5C164 6.04416 157.956 0 150.5 0C143.044 0 137 6.04416 137 13.5C137 20.9558 143.044 27 150.5 27Z" fill="white"/>
<path d="M150.88 11.28C150.88 11.5467 150.8 11.9 150.64 12.34C150.493 12.78 150.293 13.2533 150.04 13.76C149.787 14.2667 149.493 14.78 149.16 15.3C148.827 15.8067 148.48 16.2733 148.12 16.7C147.773 17.1133 147.42 17.4533 147.06 17.72C146.7 17.9867 146.367 18.12 146.06 18.12C145.873 18.12 145.707 18.08 145.56 18C145.413 17.9333 145.28 17.84 145.16 17.72C145.04 17.6 144.933 17.4667 144.84 17.32C144.747 17.1733 144.66 17.0267 144.58 16.88C144.473 16.6133 144.36 16.6133 144.24 16.88C144.187 16.9867 144.107 17.1467 144 17.36C143.907 17.56 143.827 17.7133 143.76 17.82C143.653 17.9667 143.54 18.0267 143.42 18C143.313 17.96 143.193 17.9067 143.06 17.84C142.9 17.76 142.727 17.6533 142.54 17.52C142.353 17.3733 142.173 17.2133 142 17.04C141.827 16.8533 141.687 16.66 141.58 16.46C141.46 16.26 141.4 16.06 141.4 15.86C141.4 15.7667 141.48 15.52 141.64 15.12C141.8 14.72 142.007 14.2267 142.26 13.64C142.513 13.04 142.793 12.3733 143.1 11.64C143.42 10.9067 143.727 10.16 144.02 9.4C144.313 8.64 144.587 7.89333 144.84 7.16C145.093 6.42667 145.28 5.76 145.4 5.16C145.467 4.8 145.527 4.54667 145.58 4.4C145.647 4.25333 145.787 4.18 146 4.18C146.107 4.18 146.287 4.23333 146.54 4.34C146.793 4.43333 147.047 4.56 147.3 4.72C147.567 4.88 147.8 5.05333 148 5.24C148.2 5.42667 148.3 5.60667 148.3 5.78C148.3 6.16667 148.2 6.62667 148 7.16C147.8 7.68 147.607 8.18 147.42 8.66C147.367 8.76667 147.36 8.84 147.4 8.88C147.453 8.92 147.52 8.90667 147.6 8.84C147.84 8.66667 148.053 8.52 148.24 8.4C148.44 8.28 148.68 8.22 148.96 8.22C149.213 8.22 149.453 8.34 149.68 8.58C149.92 8.82 150.127 9.10667 150.3 9.44C150.487 9.76 150.627 10.0933 150.72 10.44C150.827 10.7867 150.88 11.0667 150.88 11.28ZM147.9 11.76C147.9 11.5867 147.86 11.4733 147.78 11.42C147.713 11.3533 147.62 11.32 147.5 11.32C147.433 11.32 147.34 11.34 147.22 11.38C147.113 11.42 147 11.4733 146.88 11.54C146.76 11.5933 146.647 11.66 146.54 11.74C146.447 11.8067 146.38 11.8733 146.34 11.94C146.233 12.1267 146.12 12.3467 146 12.6C145.88 12.84 145.76 13.0933 145.64 13.36C145.52 13.6133 145.407 13.8667 145.3 14.12C145.193 14.3733 145.093 14.6067 145 14.82C144.947 14.94 144.96 15.0133 145.04 15.04C145.133 15.0667 145.207 15.08 145.26 15.08C145.46 15.08 145.707 14.9467 146 14.68C146.307 14.4133 146.6 14.1 146.88 13.74C147.16 13.3667 147.4 12.9933 147.6 12.62C147.8 12.2467 147.9 11.96 147.9 11.76ZM159.528 10.58C159.528 10.9267 159.448 11.34 159.288 11.82C159.141 12.2867 158.941 12.7867 158.688 13.32C158.448 13.84 158.168 14.3733 157.848 14.92C157.541 15.4533 157.228 15.9667 156.908 16.46C156.601 16.94 156.308 17.38 156.028 17.78C155.748 18.18 155.508 18.5 155.308 18.74C155.041 19.0733 154.708 19.4467 154.308 19.86C153.908 20.2867 153.501 20.6867 153.088 21.06C152.674 21.4333 152.288 21.7467 151.928 22C151.568 22.2667 151.294 22.4 151.108 22.4C150.854 22.4 150.621 22.2867 150.408 22.06C150.328 21.98 150.228 21.86 150.108 21.7C149.988 21.5533 149.874 21.3933 149.768 21.22C149.648 21.06 149.548 20.9 149.468 20.74C149.374 20.58 149.328 20.44 149.328 20.32C149.328 20.2133 149.354 20.1267 149.408 20.06C149.448 20.0067 149.521 19.9467 149.628 19.88C149.668 19.8533 149.774 19.7867 149.948 19.68C150.108 19.5733 150.301 19.44 150.528 19.28C150.754 19.1333 150.988 18.9667 151.228 18.78C151.481 18.6067 151.708 18.4333 151.908 18.26C152.121 18.0867 152.294 17.92 152.428 17.76C152.561 17.5867 152.628 17.4467 152.628 17.34C152.628 17.26 152.568 17.18 152.448 17.1C152.328 17.0067 152.194 16.9067 152.048 16.8C151.914 16.6933 151.788 16.5733 151.668 16.44C151.561 16.3067 151.508 16.14 151.508 15.94C151.508 15.74 151.521 15.44 151.548 15.04C151.588 14.64 151.634 14.1867 151.688 13.68C151.754 13.1733 151.821 12.6467 151.888 12.1C151.968 11.5533 152.054 11.04 152.148 10.56C152.241 10.0667 152.334 9.64 152.428 9.28C152.521 8.90667 152.614 8.64667 152.708 8.5C152.841 8.31333 153.021 8.22 153.248 8.22C153.301 8.22 153.454 8.28 153.708 8.4C153.961 8.50667 154.221 8.64 154.488 8.8C154.768 8.96 155.014 9.13333 155.228 9.32C155.454 9.49333 155.568 9.64667 155.568 9.78C155.568 9.98 155.521 10.2733 155.428 10.66C155.334 11.0467 155.228 11.4667 155.108 11.92C154.988 12.3733 154.868 12.8333 154.748 13.3C154.628 13.7533 154.541 14.16 154.488 14.52C154.448 14.7867 154.461 14.9333 154.528 14.96C154.594 14.9867 154.694 14.8867 154.828 14.66C155.374 13.6867 155.854 12.6933 156.268 11.68C156.681 10.6533 156.981 9.75333 157.168 8.98C157.208 8.82 157.248 8.7 157.288 8.62C157.341 8.54 157.421 8.5 157.528 8.5C157.794 8.51333 158.048 8.58 158.288 8.7C158.541 8.80667 158.754 8.96 158.928 9.16C159.114 9.34667 159.261 9.56667 159.368 9.82C159.474 10.06 159.528 10.3133 159.528 10.58Z" fill="#6E52DD"/>
<path d="M4.295 43.42H2.09V42.7H7.265V43.42H5.06V49H4.295V43.42ZM15.3715 48.991V42.709C16.2055 42.685 16.7815 42.673 17.0995 42.673C17.7835 42.673 18.2905 42.811 18.6205 43.087C18.9565 43.357 19.1245 43.738 19.1245 44.23C19.1245 44.596 19.0285 44.902 18.8365 45.148C18.6445 45.394 18.3805 45.574 18.0445 45.688V45.706C18.4525 45.772 18.7705 45.934 18.9985 46.192C19.2325 46.45 19.3495 46.786 19.3495 47.2C19.3495 47.8 19.1455 48.256 18.7375 48.568C18.3295 48.874 17.7715 49.027 17.0635 49.027C16.3735 49.027 15.8095 49.015 15.3715 48.991ZM17.1535 46.129H16.1365V48.271C16.3825 48.295 16.7065 48.307 17.1085 48.307C17.5825 48.307 17.9455 48.211 18.1975 48.019C18.4555 47.821 18.5845 47.533 18.5845 47.155C18.5845 46.825 18.4585 46.573 18.2065 46.399C17.9605 46.219 17.6095 46.129 17.1535 46.129ZM17.0815 43.393C16.9015 43.393 16.5865 43.402 16.1365 43.42V45.454H17.1445C17.4985 45.454 17.7895 45.361 18.0175 45.175C18.2455 44.983 18.3595 44.725 18.3595 44.401C18.3595 43.729 17.9335 43.393 17.0815 43.393ZM27.5052 45.85C27.5052 44.938 27.8082 44.17 28.4142 43.546C29.0202 42.922 29.7882 42.61 30.7182 42.61C31.6422 42.61 32.4072 42.913 33.0132 43.519C33.6252 44.125 33.9312 44.902 33.9312 45.85C33.9312 46.774 33.6252 47.548 33.0132 48.172C32.4012 48.784 31.6362 49.09 30.7182 49.09C29.8002 49.09 29.0322 48.787 28.4142 48.181C27.8082 47.575 27.5052 46.798 27.5052 45.85ZM28.3152 45.85C28.3152 46.558 28.5462 47.158 29.0082 47.65C29.4702 48.13 30.0402 48.37 30.7182 48.37C31.4262 48.37 32.0022 48.13 32.4462 47.65C32.8962 47.17 33.1212 46.57 33.1212 45.85C33.1212 45.13 32.8902 44.53 32.4282 44.05C31.9662 43.57 31.3962 43.33 30.7182 43.33C30.0282 43.33 29.4552 43.567 28.9992 44.041C28.5432 44.515 28.3152 45.118 28.3152 45.85ZM46.9043 43.96L43.0793 49H42.4043V42.7H43.1693V47.74L46.9943 42.7H47.6693V49H46.9043V43.96ZM43.4123 41.26H44.1323C44.2763 41.65 44.5973 41.845 45.0953 41.845C45.6233 41.845 45.9323 41.65 46.0223 41.26H46.7423C46.7003 41.596 46.5233 41.869 46.2113 42.079C45.9053 42.283 45.5333 42.385 45.0953 42.385C44.6333 42.385 44.2493 42.283 43.9433 42.079C43.6433 41.875 43.4663 41.602 43.4123 41.26ZM66.4931 49H65.7281V42.7H66.5021L68.8691 45.931L71.1371 42.7H71.8661V49H71.1011V43.906L68.8691 47.038H68.7521L66.4931 43.933V49ZM80.7905 49H80.0165L82.7255 42.664H83.3825L86.0915 49H85.2725L84.4625 47.092H81.5915L80.7905 49ZM84.1655 46.372L83.0315 43.681L81.8975 46.372H84.1655ZM95.0112 49H94.2462V42.7H97.7562V43.42H95.0112V49ZM105.02 49H104.246L106.955 42.664H107.612L110.321 49H109.502L108.692 47.092H105.821L105.02 49ZM108.395 46.372L107.261 43.681L106.127 46.372H108.395ZM119.951 49.09C119.513 49.09 119.105 48.997 118.727 48.811C118.355 48.625 118.076 48.388 117.89 48.1L118.313 47.587C118.511 47.821 118.757 48.01 119.051 48.154C119.351 48.298 119.636 48.37 119.906 48.37C120.338 48.37 120.683 48.262 120.941 48.046C121.205 47.83 121.337 47.536 121.337 47.164C121.337 46.852 121.229 46.603 121.013 46.417C120.797 46.231 120.494 46.138 120.104 46.138H119.375V45.418H120.05C120.326 45.418 120.569 45.319 120.779 45.121C120.989 44.911 121.094 44.656 121.094 44.356C121.094 44.032 120.989 43.78 120.779 43.6C120.569 43.42 120.293 43.33 119.951 43.33C119.393 43.33 118.916 43.564 118.52 44.032L118.07 43.528C118.286 43.24 118.568 43.015 118.916 42.853C119.264 42.691 119.636 42.61 120.032 42.61C120.59 42.61 121.034 42.76 121.364 43.06C121.694 43.354 121.859 43.762 121.859 44.284C121.859 44.578 121.778 44.857 121.616 45.121C121.46 45.379 121.238 45.58 120.95 45.724V45.751C121.316 45.823 121.598 45.994 121.796 46.264C122 46.528 122.102 46.852 122.102 47.236C122.102 47.806 121.892 48.256 121.472 48.586C121.052 48.922 120.545 49.09 119.951 49.09Z" fill="white"/>
<path d="M23.68 14.336C23.68 15.708 23.33 16.926 22.63 17.99C21.958 19.054 21.188 19.95 20.32 20.678C19.48 21.406 18.668 21.98 17.884 22.4C17.128 22.82 16.666 23.072 16.498 23.156C16.302 23.268 16.19 23.408 16.162 23.576C16.134 23.716 16.12 23.856 16.12 23.996C16.12 24.416 16.162 24.906 16.246 25.466C16.33 26.026 16.442 26.614 16.582 27.23C16.722 27.818 16.876 28.392 17.044 28.952C17.212 29.512 17.38 29.974 17.548 30.338C17.744 30.814 17.954 31.29 18.178 31.766C18.43 32.242 18.752 32.76 19.144 33.32C19.312 33.572 19.242 33.838 18.934 34.118C18.654 34.398 18.276 34.65 17.8 34.874C17.324 35.07 16.806 35.238 16.246 35.378C15.714 35.518 15.28 35.588 14.944 35.588C14.664 35.588 14.328 35.518 13.936 35.378C13.572 35.238 13.208 35.056 12.844 34.832C12.48 34.58 12.144 34.314 11.836 34.034C11.528 33.726 11.29 33.418 11.122 33.11C10.814 32.55 10.59 31.92 10.45 31.22C10.31 30.52 10.212 29.792 10.156 29.036C10.128 28.252 10.1 27.454 10.072 26.642C10.072 25.802 10.058 24.962 10.03 24.122C10.03 23.842 9.96 23.702 9.82 23.702C9.68 23.674 9.568 23.772 9.484 23.996C9.372 24.276 9.232 24.752 9.064 25.424C8.896 26.068 8.7 26.796 8.476 27.608C8.28 28.42 8.042 29.26 7.762 30.128C7.482 30.996 7.188 31.794 6.88 32.522C6.6 33.222 6.306 33.81 5.998 34.286C5.69 34.734 5.368 34.958 5.032 34.958C4.696 34.958 4.43 34.916 4.234 34.832C4.066 34.72 3.912 34.594 3.772 34.454C3.66 34.314 3.534 34.174 3.394 34.034C3.254 33.866 3.086 33.726 2.89 33.614C2.554 33.418 2.204 33.264 1.84 33.152C1.504 33.04 1.196 32.9 0.916 32.732C0.636 32.564 0.412 32.326 0.244 32.018C0.048 31.71 -0.05 31.276 -0.05 30.716C-0.05 30.324 0.104 29.68 0.412 28.784C0.72 27.888 1.098 26.866 1.546 25.718C2.022 24.57 2.54 23.366 3.1 22.106C3.688 20.846 4.248 19.642 4.78 18.494C5.312 17.318 5.788 16.268 6.208 15.344C6.628 14.42 6.922 13.72 7.09 13.244C7.202 12.88 7.202 12.53 7.09 12.194C6.978 11.83 6.838 11.466 6.67 11.102C6.53 10.738 6.46 10.276 6.46 9.716C6.46 8.904 6.74 8.372 7.3 8.12C8.224 7.728 9.344 7.42 10.66 7.196C12.004 6.972 13.516 6.86 15.196 6.86C16.288 6.86 17.338 7.028 18.346 7.364C19.382 7.7 20.292 8.19 21.076 8.834C21.86 9.45 22.49 10.234 22.966 11.186C23.442 12.11 23.68 13.16 23.68 14.336ZM17.506 14.168C17.506 13.748 17.366 13.398 17.086 13.118C16.806 12.838 16.386 12.698 15.826 12.698C15.434 12.698 15.168 12.726 15.028 12.782C14.888 12.81 14.692 12.852 14.44 12.908C14.272 12.964 14.132 13.076 14.02 13.244C13.824 13.552 13.614 13.916 13.39 14.336C13.166 14.728 12.942 15.148 12.718 15.596C12.522 16.044 12.326 16.492 12.13 16.94C11.962 17.388 11.822 17.808 11.71 18.2C11.654 18.424 11.724 18.536 11.92 18.536C12.144 18.536 12.34 18.522 12.508 18.494C12.844 18.438 13.292 18.298 13.852 18.074C14.412 17.85 14.958 17.556 15.49 17.192C16.05 16.8 16.526 16.352 16.918 15.848C17.31 15.344 17.506 14.784 17.506 14.168ZM44.4093 11.942C44.4093 13.034 44.2273 14.378 43.8633 15.974C43.5273 17.542 43.0513 19.194 42.4353 20.93C41.8193 22.666 41.0633 24.388 40.1673 26.096C39.2993 27.804 38.3193 29.344 37.2273 30.716C36.1633 32.06 35.0153 33.166 33.7833 34.034C32.5513 34.874 31.2773 35.294 29.9613 35.294C29.7373 35.294 29.4853 35.28 29.2053 35.252C28.9253 35.224 28.6453 35.168 28.3653 35.084C26.5453 34.524 25.1593 33.6 24.2073 32.312C23.2553 31.024 22.7793 29.414 22.7793 27.482C22.7793 26.222 22.9473 24.794 23.2833 23.198C23.6193 21.602 24.0393 19.992 24.5433 18.368C25.0753 16.744 25.6633 15.176 26.3073 13.664C26.9513 12.152 27.5673 10.836 28.1553 9.716C28.2953 9.464 28.5333 9.198 28.8693 8.918C29.2333 8.61 29.6253 8.33 30.0453 8.078C30.4933 7.826 30.9273 7.616 31.3473 7.448C31.7953 7.28 32.1593 7.196 32.4393 7.196C32.7753 7.196 33.1533 7.378 33.5733 7.742C34.0213 8.106 34.3993 8.484 34.7073 8.876C35.0713 9.352 35.2673 9.716 35.2953 9.968C35.3513 10.22 35.3233 10.472 35.2113 10.724C34.6513 12.068 34.0213 13.524 33.3213 15.092C32.6493 16.632 32.0053 18.186 31.3893 19.754C30.8013 21.294 30.2973 22.764 29.8773 24.164C29.4853 25.564 29.2893 26.782 29.2893 27.818C29.2893 28.126 29.3733 28.378 29.5413 28.574C29.7093 28.742 29.9053 28.826 30.1293 28.826C30.4373 28.826 30.7593 28.616 31.0953 28.196C31.4313 27.748 31.7253 27.328 31.9773 26.936C32.5933 25.9 33.2093 24.682 33.8253 23.282C34.4693 21.854 35.0713 20.342 35.6313 18.746C36.1913 17.122 36.7233 15.47 37.2273 13.79C37.7593 12.11 38.2353 10.5 38.6553 8.96C38.7113 8.708 38.8093 8.4 38.9493 8.036C39.0893 7.644 39.3273 7.448 39.6633 7.448C39.8313 7.448 40.0973 7.546 40.4613 7.742C40.8253 7.91 41.2033 8.12 41.5953 8.372C42.0153 8.596 42.3933 8.834 42.7293 9.086C43.0933 9.31 43.3453 9.478 43.4853 9.59C43.8493 9.87 44.0873 10.234 44.1993 10.682C44.3393 11.102 44.4093 11.522 44.4093 11.942ZM57.6128 10.976C56.9408 12.376 56.2408 13.748 55.5128 15.092C54.8128 16.436 54.1408 17.794 53.4968 19.166C52.8528 20.51 52.2508 21.868 51.6908 23.24C51.1588 24.612 50.7108 26.012 50.3468 27.44C50.2068 27.916 50.1788 28.238 50.2628 28.406C50.3468 28.546 50.5848 28.616 50.9768 28.616C51.8728 28.616 52.6988 28.49 53.4548 28.238C54.2388 27.986 54.9108 27.86 55.4708 27.86C55.9468 27.86 56.3528 28.084 56.6888 28.532C57.0528 28.952 57.2348 29.456 57.2348 30.044C57.2348 30.324 57.1928 30.646 57.1088 31.01C57.0248 31.374 56.8988 31.738 56.7308 32.102C56.5908 32.466 56.3948 32.802 56.1428 33.11C55.9188 33.39 55.6388 33.614 55.3028 33.782C54.9948 33.922 54.5608 34.09 54.0008 34.286C53.4408 34.454 52.8388 34.622 52.1948 34.79C51.5508 34.93 50.9068 35.056 50.2628 35.168C49.6468 35.28 49.1148 35.336 48.6668 35.336C47.5468 35.336 46.5668 35.112 45.7268 34.664C44.8868 34.216 44.1448 33.474 43.5008 32.438C43.2768 32.018 43.0668 31.542 42.8708 31.01C42.6468 30.45 42.5348 29.918 42.5348 29.414C42.5348 28.966 42.7168 28.182 43.0808 27.062C43.4448 25.942 43.9208 24.668 44.5088 23.24C45.0968 21.812 45.7408 20.3 46.4408 18.704C47.1688 17.108 47.8688 15.596 48.5408 14.168C49.2128 12.74 49.8288 11.48 50.3888 10.388C50.9768 9.268 51.4248 8.47 51.7328 7.994C51.8728 7.77 52.0408 7.588 52.2368 7.448C52.4608 7.28 52.7128 7.196 52.9928 7.196C53.3288 7.196 53.7768 7.336 54.3368 7.616C54.9248 7.896 55.4848 8.246 56.0168 8.666C56.5488 9.058 56.9828 9.478 57.3188 9.926C57.6548 10.346 57.7528 10.696 57.6128 10.976ZM78.767 12.488C78.767 12.852 78.669 13.174 78.473 13.454C78.305 13.706 78.053 13.832 77.717 13.832C77.129 13.832 76.527 13.72 75.911 13.496C75.323 13.272 74.707 13.16 74.063 13.16C73.643 13.16 73.321 13.188 73.097 13.244C72.873 13.3 72.691 13.398 72.551 13.538C72.411 13.65 72.271 13.818 72.131 14.042C71.991 14.266 71.823 14.546 71.627 14.882C71.543 15.022 71.431 15.218 71.291 15.47C71.151 15.694 70.997 15.932 70.829 16.184C70.689 16.436 70.549 16.688 70.409 16.94C70.269 17.192 70.157 17.402 70.073 17.57C69.905 17.906 69.947 18.102 70.199 18.158C70.619 18.186 70.983 18.214 71.291 18.242C71.599 18.242 71.893 18.242 72.173 18.242C72.481 18.242 72.789 18.256 73.097 18.284C73.405 18.312 73.755 18.34 74.147 18.368C74.539 18.424 74.805 18.69 74.945 19.166C75.085 19.614 75.155 20.076 75.155 20.552C75.155 21.28 74.959 21.91 74.567 22.442C74.203 22.974 73.867 23.254 73.559 23.282C73.475 23.366 73.181 23.436 72.677 23.492C72.173 23.52 71.599 23.548 70.955 23.576C70.339 23.576 69.737 23.59 69.149 23.618C68.589 23.618 68.197 23.618 67.973 23.618C67.693 23.618 67.469 23.758 67.301 24.038C67.161 24.29 66.993 24.64 66.797 25.088C66.601 25.508 66.405 25.942 66.209 26.39C66.013 26.838 65.831 27.244 65.663 27.608C65.523 27.972 65.439 28.21 65.411 28.322C65.299 28.686 65.411 28.868 65.747 28.868C66.783 28.868 67.777 28.784 68.729 28.616C69.709 28.42 70.703 28.322 71.711 28.322C72.019 28.322 72.285 28.49 72.509 28.826C72.733 29.134 72.845 29.414 72.845 29.666C72.845 30.366 72.733 31.122 72.509 31.934C72.285 32.746 71.879 33.334 71.291 33.698C70.927 33.922 70.325 34.132 69.485 34.328C68.673 34.524 67.819 34.692 66.923 34.832C66.027 34.972 65.173 35.084 64.361 35.168C63.577 35.252 63.031 35.294 62.723 35.294C62.135 35.294 61.561 35.056 61.001 34.58C60.441 34.104 59.923 33.53 59.447 32.858C58.999 32.186 58.635 31.486 58.355 30.758C58.075 30.03 57.935 29.414 57.935 28.91C57.935 28.462 58.061 27.944 58.313 27.356C58.565 26.74 58.845 26.138 59.153 25.55C59.461 24.934 59.755 24.36 60.035 23.828C60.343 23.268 60.525 22.806 60.581 22.442C60.665 22.05 60.665 21.672 60.581 21.308C60.525 20.916 60.483 20.524 60.455 20.132C60.455 19.88 60.497 19.628 60.581 19.376C60.693 19.124 60.889 18.928 61.169 18.788C61.393 18.648 61.575 18.564 61.715 18.536C61.883 18.48 62.107 18.396 62.387 18.284C62.499 18.256 62.597 18.144 62.681 17.948C62.765 17.696 62.905 17.388 63.101 17.024C63.325 16.632 63.563 16.24 63.815 15.848C64.067 15.428 64.319 15.05 64.571 14.714C64.823 14.35 65.047 14.056 65.243 13.832C65.467 13.552 65.579 13.286 65.579 13.034C65.579 12.614 65.453 12.194 65.201 11.774C64.949 11.354 64.823 10.906 64.823 10.43C64.823 9.73 65.117 9.184 65.705 8.792C66.321 8.372 67.049 8.064 67.889 7.868C68.729 7.672 69.583 7.56 70.451 7.532C71.319 7.476 72.019 7.448 72.551 7.448C73.055 7.448 73.559 7.476 74.063 7.532C74.567 7.56 75.043 7.644 75.491 7.784C75.967 7.896 76.401 8.078 76.793 8.33C77.185 8.582 77.521 8.918 77.801 9.338C78.053 9.73 78.277 10.248 78.473 10.892C78.669 11.536 78.767 12.068 78.767 12.488Z" fill="white"/>
<path d="M96.0891 12.236C96.0891 12.824 95.7111 13.65 94.9551 14.714C94.1991 15.75 93.2331 16.968 92.0571 18.368C90.8811 19.74 89.5791 21.224 88.1511 22.82C86.7511 24.416 85.4071 26.054 84.1191 27.734C83.9791 27.958 83.8951 28.14 83.8671 28.28C83.8671 28.392 84.0071 28.448 84.2871 28.448C85.0711 28.448 85.9251 28.336 86.8491 28.112C87.8011 27.888 88.6831 27.776 89.4951 27.776C90.0551 27.776 90.5311 28.014 90.9231 28.49C91.3431 28.938 91.5531 29.428 91.5531 29.96C91.5531 30.184 91.4831 30.534 91.3431 31.01C91.2311 31.486 91.0351 31.976 90.7551 32.48C90.5031 32.956 90.1671 33.39 89.7471 33.782C89.3551 34.146 88.8931 34.328 88.3611 34.328C87.7171 34.328 86.9191 34.286 85.9671 34.202C85.0431 34.09 83.9651 34.104 82.7331 34.244C82.2571 34.3 81.7671 34.398 81.2631 34.538C80.7591 34.65 80.2551 34.776 79.7511 34.916C79.2471 35.056 78.7431 35.168 78.2391 35.252C77.7631 35.364 77.3151 35.42 76.8951 35.42C76.4471 35.42 76.1111 35.294 75.8871 35.042C75.7471 34.874 75.5651 34.622 75.3411 34.286C75.0891 33.922 74.8511 33.544 74.6271 33.152C74.3751 32.732 74.1651 32.326 73.9971 31.934C73.8291 31.542 73.7451 31.22 73.7451 30.968C73.7451 30.576 74.0531 29.932 74.6691 29.036C75.2851 28.14 76.0551 27.132 76.9791 26.012C77.9031 24.864 78.9251 23.674 80.0451 22.442C81.1651 21.182 82.2291 20.02 83.2371 18.956C84.2451 17.864 85.1271 16.912 85.8831 16.1C86.6671 15.288 87.1711 14.742 87.3951 14.462C87.7311 14.07 87.6611 13.874 87.1851 13.874C86.9331 13.874 86.5691 13.944 86.0931 14.084C85.6171 14.196 85.1271 14.336 84.6231 14.504C84.1471 14.672 83.6991 14.826 83.2791 14.966C82.8591 15.078 82.5791 15.134 82.4391 15.134C82.1871 15.134 81.9351 14.938 81.6831 14.546C81.4311 14.126 81.2071 13.65 81.0111 13.118C80.8151 12.558 80.6471 12.026 80.5071 11.522C80.3951 10.99 80.3391 10.612 80.3391 10.388C80.3391 9.996 80.4091 9.716 80.5491 9.548C80.6891 9.324 81.0391 9.114 81.5991 8.918C82.1871 8.694 82.8731 8.512 83.6571 8.372C84.4411 8.204 85.2811 8.064 86.1771 7.952C87.1011 7.84 87.9831 7.756 88.8231 7.7C89.6631 7.616 90.4051 7.56 91.0491 7.532C91.7211 7.476 92.2111 7.448 92.5191 7.448C92.7431 7.448 92.9531 7.462 93.1491 7.49C93.3451 7.518 93.5131 7.588 93.6531 7.7C93.8211 7.84 94.0451 8.106 94.3251 8.498C94.6051 8.89 94.8711 9.324 95.1231 9.8C95.4031 10.276 95.6271 10.752 95.7951 11.228C95.9911 11.676 96.0891 12.012 96.0891 12.236ZM114.044 12.236C114.044 12.824 113.666 13.65 112.91 14.714C112.154 15.75 111.188 16.968 110.012 18.368C108.836 19.74 107.534 21.224 106.106 22.82C104.706 24.416 103.362 26.054 102.074 27.734C101.934 27.958 101.85 28.14 101.822 28.28C101.822 28.392 101.962 28.448 102.242 28.448C103.026 28.448 103.88 28.336 104.804 28.112C105.756 27.888 106.638 27.776 107.45 27.776C108.01 27.776 108.486 28.014 108.878 28.49C109.298 28.938 109.508 29.428 109.508 29.96C109.508 30.184 109.438 30.534 109.298 31.01C109.186 31.486 108.99 31.976 108.71 32.48C108.458 32.956 108.122 33.39 107.702 33.782C107.31 34.146 106.848 34.328 106.316 34.328C105.672 34.328 104.874 34.286 103.922 34.202C102.998 34.09 101.92 34.104 100.688 34.244C100.212 34.3 99.7218 34.398 99.2178 34.538C98.7138 34.65 98.2098 34.776 97.7058 34.916C97.2018 35.056 96.6978 35.168 96.1938 35.252C95.7178 35.364 95.2698 35.42 94.8498 35.42C94.4018 35.42 94.0658 35.294 93.8418 35.042C93.7018 34.874 93.5198 34.622 93.2958 34.286C93.0438 33.922 92.8058 33.544 92.5818 33.152C92.3298 32.732 92.1198 32.326 91.9518 31.934C91.7838 31.542 91.6998 31.22 91.6998 30.968C91.6998 30.576 92.0078 29.932 92.6238 29.036C93.2398 28.14 94.0098 27.132 94.9338 26.012C95.8578 24.864 96.8798 23.674 97.9998 22.442C99.1198 21.182 100.184 20.02 101.192 18.956C102.2 17.864 103.082 16.912 103.838 16.1C104.622 15.288 105.126 14.742 105.35 14.462C105.686 14.07 105.616 13.874 105.14 13.874C104.888 13.874 104.524 13.944 104.048 14.084C103.572 14.196 103.082 14.336 102.578 14.504C102.102 14.672 101.654 14.826 101.234 14.966C100.814 15.078 100.534 15.134 100.394 15.134C100.142 15.134 99.8898 14.938 99.6378 14.546C99.3858 14.126 99.1618 13.65 98.9658 13.118C98.7698 12.558 98.6018 12.026 98.4618 11.522C98.3498 10.99 98.2938 10.612 98.2938 10.388C98.2938 9.996 98.3638 9.716 98.5038 9.548C98.6438 9.324 98.9938 9.114 99.5538 8.918C100.142 8.694 100.828 8.512 101.612 8.372C102.396 8.204 103.236 8.064 104.132 7.952C105.056 7.84 105.938 7.756 106.778 7.7C107.618 7.616 108.36 7.56 109.004 7.532C109.676 7.476 110.166 7.448 110.474 7.448C110.698 7.448 110.908 7.462 111.104 7.49C111.3 7.518 111.468 7.588 111.608 7.7C111.776 7.84 112 8.106 112.28 8.498C112.56 8.89 112.826 9.324 113.078 9.8C113.358 10.276 113.582 10.752 113.75 11.228C113.946 11.676 114.044 12.012 114.044 12.236ZM131.999 12.236C131.999 12.824 131.621 13.65 130.865 14.714C130.109 15.75 129.143 16.968 127.967 18.368C126.791 19.74 125.489 21.224 124.061 22.82C122.661 24.416 121.317 26.054 120.029 27.734C119.889 27.958 119.805 28.14 119.777 28.28C119.777 28.392 119.917 28.448 120.197 28.448C120.981 28.448 121.835 28.336 122.759 28.112C123.711 27.888 124.593 27.776 125.405 27.776C125.965 27.776 126.441 28.014 126.833 28.49C127.253 28.938 127.463 29.428 127.463 29.96C127.463 30.184 127.393 30.534 127.253 31.01C127.141 31.486 126.945 31.976 126.665 32.48C126.413 32.956 126.077 33.39 125.657 33.782C125.265 34.146 124.803 34.328 124.271 34.328C123.627 34.328 122.829 34.286 121.877 34.202C120.953 34.09 119.875 34.104 118.643 34.244C118.167 34.3 117.677 34.398 117.173 34.538C116.669 34.65 116.165 34.776 115.661 34.916C115.157 35.056 114.653 35.168 114.149 35.252C113.673 35.364 113.225 35.42 112.805 35.42C112.357 35.42 112.021 35.294 111.797 35.042C111.657 34.874 111.475 34.622 111.251 34.286C110.999 33.922 110.761 33.544 110.537 33.152C110.285 32.732 110.075 32.326 109.907 31.934C109.739 31.542 109.655 31.22 109.655 30.968C109.655 30.576 109.963 29.932 110.579 29.036C111.195 28.14 111.965 27.132 112.889 26.012C113.813 24.864 114.835 23.674 115.955 22.442C117.075 21.182 118.139 20.02 119.147 18.956C120.155 17.864 121.037 16.912 121.793 16.1C122.577 15.288 123.081 14.742 123.305 14.462C123.641 14.07 123.571 13.874 123.095 13.874C122.843 13.874 122.479 13.944 122.003 14.084C121.527 14.196 121.037 14.336 120.533 14.504C120.057 14.672 119.609 14.826 119.189 14.966C118.769 15.078 118.489 15.134 118.349 15.134C118.097 15.134 117.845 14.938 117.593 14.546C117.341 14.126 117.117 13.65 116.921 13.118C116.725 12.558 116.557 12.026 116.417 11.522C116.305 10.99 116.249 10.612 116.249 10.388C116.249 9.996 116.319 9.716 116.459 9.548C116.599 9.324 116.949 9.114 117.509 8.918C118.097 8.694 118.783 8.512 119.567 8.372C120.351 8.204 121.191 8.064 122.087 7.952C123.011 7.84 123.893 7.756 124.733 7.7C125.573 7.616 126.315 7.56 126.959 7.532C127.631 7.476 128.121 7.448 128.429 7.448C128.653 7.448 128.863 7.462 129.059 7.49C129.255 7.518 129.423 7.588 129.563 7.7C129.731 7.84 129.955 8.106 130.235 8.498C130.515 8.89 130.781 9.324 131.033 9.8C131.313 10.276 131.537 10.752 131.705 11.228C131.901 11.676 131.999 12.012 131.999 12.236Z" fill="#F8E71C"/>
</g>
</svg>
