<svg width="165" height="65" viewBox="0 0 165 65" fill="none" xmlns="http://www.w3.org/2000/svg">
<path d="M5.421 57.09C6.573 57.09 7.572 56.397 7.572 55.236C7.572 54.516 7.185 53.895 6.42 53.751V53.724C7.032 53.409 7.329 52.815 7.329 52.284C7.329 51.213 6.591 50.61 5.502 50.61C4.683 50.61 3.963 50.979 3.54 51.528L3.99 52.032C4.368 51.582 4.8 51.33 5.421 51.33C6.069 51.33 6.564 51.672 6.564 52.356C6.564 52.986 6.051 53.418 5.52 53.418H4.845V54.138H5.574C6.357 54.138 6.807 54.543 6.807 55.164C6.807 55.947 6.195 56.37 5.376 56.37C4.863 56.37 4.188 56.064 3.783 55.587L3.36 56.1C3.693 56.604 4.458 57.09 5.421 57.09ZM17.5081 57H18.2821L19.0831 55.092H21.9541L22.7641 57H23.5831L20.8741 50.664H20.2171L17.5081 57ZM20.5231 51.681L21.6571 54.372H19.3891L20.5231 51.681ZM34.5988 57V54.579C34.9138 54.606 35.2918 54.615 35.5438 54.615C37.0828 54.615 37.8118 53.661 37.8118 52.635C37.8118 51.654 37.2808 50.682 35.4808 50.682C35.0848 50.682 34.1848 50.7 33.8338 50.7V57H34.5988ZM35.5528 51.402C36.5518 51.402 37.0018 51.879 37.0018 52.626C37.0018 53.418 36.4438 53.895 35.5168 53.895C35.2018 53.895 34.9048 53.877 34.5988 53.85V51.42C34.8958 51.411 35.3008 51.402 35.5528 51.402ZM52.9979 50.7H52.2239L50.4959 54.651L48.1379 50.7H47.2739L50.1269 55.416L50.0189 55.65C49.8479 56.01 49.6049 56.289 49.2449 56.289C49.0649 56.289 48.9299 56.244 48.7589 56.127L48.4889 56.775C48.6599 56.91 48.9749 57 49.2539 57C49.9469 57 50.3879 56.523 50.8199 55.56L52.9979 50.7ZM66.6964 57H67.4614V50.7H63.6904L63.6004 51.96C63.3124 56.055 62.5564 56.28 62.1064 56.235L62.0974 57C63.0874 57.126 63.9334 56.613 64.3024 52.608L64.4104 51.42H66.6964V57ZM79.1927 57L83.0177 51.96V57H83.7827V50.7H83.1077L79.2827 55.74V50.7H78.5177V57H79.1927ZM94.842 56.991C95.211 57.009 95.976 57.027 96.534 57.027C97.839 57.027 98.82 56.478 98.82 55.2C98.82 54.336 98.298 53.832 97.515 53.706V53.688C98.118 53.49 98.595 53.022 98.595 52.23C98.595 51.357 98.073 50.673 96.57 50.673C95.985 50.673 95.193 50.7 94.842 50.709V56.991ZM96.624 54.129C97.533 54.129 98.055 54.489 98.055 55.155C98.055 55.929 97.506 56.307 96.579 56.307C96.219 56.307 95.814 56.289 95.607 56.271V54.129H96.624ZM96.552 51.393C97.389 51.393 97.83 51.744 97.83 52.401C97.83 53.085 97.281 53.454 96.615 53.454H95.607V51.42C95.832 51.411 96.219 51.393 96.552 51.393ZM108.757 57H109.531L110.332 55.092H113.203L114.013 57H114.832L112.123 50.664H111.466L108.757 57ZM111.772 51.681L112.906 54.372H110.638L111.772 51.681ZM125.757 57L129.582 51.96V57H130.347V50.7H129.672L125.847 55.74V50.7H125.082V57H125.757ZM126.09 49.26C126.198 49.917 126.828 50.385 127.773 50.385C128.637 50.385 129.339 49.935 129.42 49.26H128.7C128.61 49.656 128.241 49.845 127.773 49.845C127.26 49.845 126.945 49.629 126.81 49.26H126.09Z" fill="white"/>
<path d="M24.68 18.336C24.68 19.708 24.33 20.926 23.63 21.99C22.958 23.054 22.188 23.95 21.32 24.678C20.48 25.406 19.668 25.98 18.884 26.4C18.128 26.82 17.666 27.072 17.498 27.156C17.302 27.268 17.19 27.408 17.162 27.576C17.134 27.716 17.12 27.856 17.12 27.996C17.12 28.416 17.162 28.906 17.246 29.466C17.33 30.026 17.442 30.614 17.582 31.23C17.722 31.818 17.876 32.392 18.044 32.952C18.212 33.512 18.38 33.974 18.548 34.338C18.744 34.814 18.954 35.29 19.178 35.766C19.43 36.242 19.752 36.76 20.144 37.32C20.312 37.572 20.242 37.838 19.934 38.118C19.654 38.398 19.276 38.65 18.8 38.874C18.324 39.07 17.806 39.238 17.246 39.378C16.714 39.518 16.28 39.588 15.944 39.588C15.664 39.588 15.328 39.518 14.936 39.378C14.572 39.238 14.208 39.056 13.844 38.832C13.48 38.58 13.144 38.314 12.836 38.034C12.528 37.726 12.29 37.418 12.122 37.11C11.814 36.55 11.59 35.92 11.45 35.22C11.31 34.52 11.212 33.792 11.156 33.036C11.128 32.252 11.1 31.454 11.072 30.642C11.072 29.802 11.058 28.962 11.03 28.122C11.03 27.842 10.96 27.702 10.82 27.702C10.68 27.674 10.568 27.772 10.484 27.996C10.372 28.276 10.232 28.752 10.064 29.424C9.896 30.068 9.7 30.796 9.476 31.608C9.28 32.42 9.042 33.26 8.762 34.128C8.482 34.996 8.188 35.794 7.88 36.522C7.6 37.222 7.306 37.81 6.998 38.286C6.69 38.734 6.368 38.958 6.032 38.958C5.696 38.958 5.43 38.916 5.234 38.832C5.066 38.72 4.912 38.594 4.772 38.454C4.66 38.314 4.534 38.174 4.394 38.034C4.254 37.866 4.086 37.726 3.89 37.614C3.554 37.418 3.204 37.264 2.84 37.152C2.504 37.04 2.196 36.9 1.916 36.732C1.636 36.564 1.412 36.326 1.244 36.018C1.048 35.71 0.95 35.276 0.95 34.716C0.95 34.324 1.104 33.68 1.412 32.784C1.72 31.888 2.098 30.866 2.546 29.718C3.022 28.57 3.54 27.366 4.1 26.106C4.688 24.846 5.248 23.642 5.78 22.494C6.312 21.318 6.788 20.268 7.208 19.344C7.628 18.42 7.922 17.72 8.09 17.244C8.202 16.88 8.202 16.53 8.09 16.194C7.978 15.83 7.838 15.466 7.67 15.102C7.53 14.738 7.46 14.276 7.46 13.716C7.46 12.904 7.74 12.372 8.3 12.12C9.224 11.728 10.344 11.42 11.66 11.196C13.004 10.972 14.516 10.86 16.196 10.86C17.288 10.86 18.338 11.028 19.346 11.364C20.382 11.7 21.292 12.19 22.076 12.834C22.86 13.45 23.49 14.234 23.966 15.186C24.442 16.11 24.68 17.16 24.68 18.336ZM18.506 18.168C18.506 17.748 18.366 17.398 18.086 17.118C17.806 16.838 17.386 16.698 16.826 16.698C16.434 16.698 16.168 16.726 16.028 16.782C15.888 16.81 15.692 16.852 15.44 16.908C15.272 16.964 15.132 17.076 15.02 17.244C14.824 17.552 14.614 17.916 14.39 18.336C14.166 18.728 13.942 19.148 13.718 19.596C13.522 20.044 13.326 20.492 13.13 20.94C12.962 21.388 12.822 21.808 12.71 22.2C12.654 22.424 12.724 22.536 12.92 22.536C13.144 22.536 13.34 22.522 13.508 22.494C13.844 22.438 14.292 22.298 14.852 22.074C15.412 21.85 15.958 21.556 16.49 21.192C17.05 20.8 17.526 20.352 17.918 19.848C18.31 19.344 18.506 18.784 18.506 18.168ZM45.4093 15.942C45.4093 17.034 45.2273 18.378 44.8633 19.974C44.5273 21.542 44.0513 23.194 43.4353 24.93C42.8193 26.666 42.0633 28.388 41.1673 30.096C40.2993 31.804 39.3193 33.344 38.2273 34.716C37.1633 36.06 36.0153 37.166 34.7833 38.034C33.5513 38.874 32.2773 39.294 30.9613 39.294C30.7373 39.294 30.4853 39.28 30.2053 39.252C29.9253 39.224 29.6453 39.168 29.3653 39.084C27.5453 38.524 26.1593 37.6 25.2073 36.312C24.2553 35.024 23.7793 33.414 23.7793 31.482C23.7793 30.222 23.9473 28.794 24.2833 27.198C24.6193 25.602 25.0393 23.992 25.5433 22.368C26.0753 20.744 26.6633 19.176 27.3073 17.664C27.9513 16.152 28.5673 14.836 29.1553 13.716C29.2953 13.464 29.5333 13.198 29.8693 12.918C30.2333 12.61 30.6253 12.33 31.0453 12.078C31.4933 11.826 31.9273 11.616 32.3473 11.448C32.7953 11.28 33.1593 11.196 33.4393 11.196C33.7753 11.196 34.1533 11.378 34.5733 11.742C35.0213 12.106 35.3993 12.484 35.7073 12.876C36.0713 13.352 36.2673 13.716 36.2953 13.968C36.3513 14.22 36.3233 14.472 36.2113 14.724C35.6513 16.068 35.0213 17.524 34.3213 19.092C33.6493 20.632 33.0053 22.186 32.3893 23.754C31.8013 25.294 31.2973 26.764 30.8773 28.164C30.4853 29.564 30.2893 30.782 30.2893 31.818C30.2893 32.126 30.3733 32.378 30.5413 32.574C30.7093 32.742 30.9053 32.826 31.1293 32.826C31.4373 32.826 31.7593 32.616 32.0953 32.196C32.4313 31.748 32.7253 31.328 32.9773 30.936C33.5933 29.9 34.2093 28.682 34.8253 27.282C35.4693 25.854 36.0713 24.342 36.6313 22.746C37.1913 21.122 37.7233 19.47 38.2273 17.79C38.7593 16.11 39.2353 14.5 39.6553 12.96C39.7113 12.708 39.8093 12.4 39.9493 12.036C40.0893 11.644 40.3273 11.448 40.6633 11.448C40.8313 11.448 41.0973 11.546 41.4613 11.742C41.8253 11.91 42.2033 12.12 42.5953 12.372C43.0153 12.596 43.3933 12.834 43.7293 13.086C44.0933 13.31 44.3453 13.478 44.4853 13.59C44.8493 13.87 45.0873 14.234 45.1993 14.682C45.3393 15.102 45.4093 15.522 45.4093 15.942ZM58.6128 14.976C57.9408 16.376 57.2408 17.748 56.5128 19.092C55.8128 20.436 55.1408 21.794 54.4968 23.166C53.8528 24.51 53.2508 25.868 52.6908 27.24C52.1588 28.612 51.7108 30.012 51.3468 31.44C51.2068 31.916 51.1788 32.238 51.2628 32.406C51.3468 32.546 51.5848 32.616 51.9768 32.616C52.8728 32.616 53.6988 32.49 54.4548 32.238C55.2388 31.986 55.9108 31.86 56.4708 31.86C56.9468 31.86 57.3528 32.084 57.6888 32.532C58.0528 32.952 58.2348 33.456 58.2348 34.044C58.2348 34.324 58.1928 34.646 58.1088 35.01C58.0248 35.374 57.8988 35.738 57.7308 36.102C57.5908 36.466 57.3948 36.802 57.1428 37.11C56.9188 37.39 56.6388 37.614 56.3028 37.782C55.9948 37.922 55.5608 38.09 55.0008 38.286C54.4408 38.454 53.8388 38.622 53.1948 38.79C52.5508 38.93 51.9068 39.056 51.2628 39.168C50.6468 39.28 50.1148 39.336 49.6668 39.336C48.5468 39.336 47.5668 39.112 46.7268 38.664C45.8868 38.216 45.1448 37.474 44.5008 36.438C44.2768 36.018 44.0668 35.542 43.8708 35.01C43.6468 34.45 43.5348 33.918 43.5348 33.414C43.5348 32.966 43.7168 32.182 44.0808 31.062C44.4448 29.942 44.9208 28.668 45.5088 27.24C46.0968 25.812 46.7408 24.3 47.4408 22.704C48.1688 21.108 48.8688 19.596 49.5408 18.168C50.2128 16.74 50.8288 15.48 51.3888 14.388C51.9768 13.268 52.4248 12.47 52.7328 11.994C52.8728 11.77 53.0408 11.588 53.2368 11.448C53.4608 11.28 53.7128 11.196 53.9928 11.196C54.3288 11.196 54.7768 11.336 55.3368 11.616C55.9248 11.896 56.4848 12.246 57.0168 12.666C57.5488 13.058 57.9828 13.478 58.3188 13.926C58.6548 14.346 58.7528 14.696 58.6128 14.976ZM79.767 16.488C79.767 16.852 79.669 17.174 79.473 17.454C79.305 17.706 79.053 17.832 78.717 17.832C78.129 17.832 77.527 17.72 76.911 17.496C76.323 17.272 75.707 17.16 75.063 17.16C74.643 17.16 74.321 17.188 74.097 17.244C73.873 17.3 73.691 17.398 73.551 17.538C73.411 17.65 73.271 17.818 73.131 18.042C72.991 18.266 72.823 18.546 72.627 18.882C72.543 19.022 72.431 19.218 72.291 19.47C72.151 19.694 71.997 19.932 71.829 20.184C71.689 20.436 71.549 20.688 71.409 20.94C71.269 21.192 71.157 21.402 71.073 21.57C70.905 21.906 70.947 22.102 71.199 22.158C71.619 22.186 71.983 22.214 72.291 22.242C72.599 22.242 72.893 22.242 73.173 22.242C73.481 22.242 73.789 22.256 74.097 22.284C74.405 22.312 74.755 22.34 75.147 22.368C75.539 22.424 75.805 22.69 75.945 23.166C76.085 23.614 76.155 24.076 76.155 24.552C76.155 25.28 75.959 25.91 75.567 26.442C75.203 26.974 74.867 27.254 74.559 27.282C74.475 27.366 74.181 27.436 73.677 27.492C73.173 27.52 72.599 27.548 71.955 27.576C71.339 27.576 70.737 27.59 70.149 27.618C69.589 27.618 69.197 27.618 68.973 27.618C68.693 27.618 68.469 27.758 68.301 28.038C68.161 28.29 67.993 28.64 67.797 29.088C67.601 29.508 67.405 29.942 67.209 30.39C67.013 30.838 66.831 31.244 66.663 31.608C66.523 31.972 66.439 32.21 66.411 32.322C66.299 32.686 66.411 32.868 66.747 32.868C67.783 32.868 68.777 32.784 69.729 32.616C70.709 32.42 71.703 32.322 72.711 32.322C73.019 32.322 73.285 32.49 73.509 32.826C73.733 33.134 73.845 33.414 73.845 33.666C73.845 34.366 73.733 35.122 73.509 35.934C73.285 36.746 72.879 37.334 72.291 37.698C71.927 37.922 71.325 38.132 70.485 38.328C69.673 38.524 68.819 38.692 67.923 38.832C67.027 38.972 66.173 39.084 65.361 39.168C64.577 39.252 64.031 39.294 63.723 39.294C63.135 39.294 62.561 39.056 62.001 38.58C61.441 38.104 60.923 37.53 60.447 36.858C59.999 36.186 59.635 35.486 59.355 34.758C59.075 34.03 58.935 33.414 58.935 32.91C58.935 32.462 59.061 31.944 59.313 31.356C59.565 30.74 59.845 30.138 60.153 29.55C60.461 28.934 60.755 28.36 61.035 27.828C61.343 27.268 61.525 26.806 61.581 26.442C61.665 26.05 61.665 25.672 61.581 25.308C61.525 24.916 61.483 24.524 61.455 24.132C61.455 23.88 61.497 23.628 61.581 23.376C61.693 23.124 61.889 22.928 62.169 22.788C62.393 22.648 62.575 22.564 62.715 22.536C62.883 22.48 63.107 22.396 63.387 22.284C63.499 22.256 63.597 22.144 63.681 21.948C63.765 21.696 63.905 21.388 64.101 21.024C64.325 20.632 64.563 20.24 64.815 19.848C65.067 19.428 65.319 19.05 65.571 18.714C65.823 18.35 66.047 18.056 66.243 17.832C66.467 17.552 66.579 17.286 66.579 17.034C66.579 16.614 66.453 16.194 66.201 15.774C65.949 15.354 65.823 14.906 65.823 14.43C65.823 13.73 66.117 13.184 66.705 12.792C67.321 12.372 68.049 12.064 68.889 11.868C69.729 11.672 70.583 11.56 71.451 11.532C72.319 11.476 73.019 11.448 73.551 11.448C74.055 11.448 74.559 11.476 75.063 11.532C75.567 11.56 76.043 11.644 76.491 11.784C76.967 11.896 77.401 12.078 77.793 12.33C78.185 12.582 78.521 12.918 78.801 13.338C79.053 13.73 79.277 14.248 79.473 14.892C79.669 15.536 79.767 16.068 79.767 16.488Z" fill="white"/>
<path d="M97.0891 16.236C97.0891 16.824 96.7111 17.65 95.9551 18.714C95.1991 19.75 94.2331 20.968 93.0571 22.368C91.8811 23.74 90.5791 25.224 89.1511 26.82C87.7511 28.416 86.4071 30.054 85.1191 31.734C84.9791 31.958 84.8951 32.14 84.8671 32.28C84.8671 32.392 85.0071 32.448 85.2871 32.448C86.0711 32.448 86.9251 32.336 87.8491 32.112C88.8011 31.888 89.6831 31.776 90.4951 31.776C91.0551 31.776 91.5311 32.014 91.9231 32.49C92.3431 32.938 92.5531 33.428 92.5531 33.96C92.5531 34.184 92.4831 34.534 92.3431 35.01C92.2311 35.486 92.0351 35.976 91.7551 36.48C91.5031 36.956 91.1671 37.39 90.7471 37.782C90.3551 38.146 89.8931 38.328 89.3611 38.328C88.7171 38.328 87.9191 38.286 86.9671 38.202C86.0431 38.09 84.9651 38.104 83.7331 38.244C83.2571 38.3 82.7671 38.398 82.2631 38.538C81.7591 38.65 81.2551 38.776 80.7511 38.916C80.2471 39.056 79.7431 39.168 79.2391 39.252C78.7631 39.364 78.3151 39.42 77.8951 39.42C77.4471 39.42 77.1111 39.294 76.8871 39.042C76.7471 38.874 76.5651 38.622 76.3411 38.286C76.0891 37.922 75.8511 37.544 75.6271 37.152C75.3751 36.732 75.1651 36.326 74.9971 35.934C74.8291 35.542 74.7451 35.22 74.7451 34.968C74.7451 34.576 75.0531 33.932 75.6691 33.036C76.2851 32.14 77.0551 31.132 77.9791 30.012C78.9031 28.864 79.9251 27.674 81.0451 26.442C82.1651 25.182 83.2291 24.02 84.2371 22.956C85.2451 21.864 86.1271 20.912 86.8831 20.1C87.6671 19.288 88.1711 18.742 88.3951 18.462C88.7311 18.07 88.6611 17.874 88.1851 17.874C87.9331 17.874 87.5691 17.944 87.0931 18.084C86.6171 18.196 86.1271 18.336 85.6231 18.504C85.1471 18.672 84.6991 18.826 84.2791 18.966C83.8591 19.078 83.5791 19.134 83.4391 19.134C83.1871 19.134 82.9351 18.938 82.6831 18.546C82.4311 18.126 82.2071 17.65 82.0111 17.118C81.8151 16.558 81.6471 16.026 81.5071 15.522C81.3951 14.99 81.3391 14.612 81.3391 14.388C81.3391 13.996 81.4091 13.716 81.5491 13.548C81.6891 13.324 82.0391 13.114 82.5991 12.918C83.1871 12.694 83.8731 12.512 84.6571 12.372C85.4411 12.204 86.2811 12.064 87.1771 11.952C88.1011 11.84 88.9831 11.756 89.8231 11.7C90.6631 11.616 91.4051 11.56 92.0491 11.532C92.7211 11.476 93.2111 11.448 93.5191 11.448C93.7431 11.448 93.9531 11.462 94.1491 11.49C94.3451 11.518 94.5131 11.588 94.6531 11.7C94.8211 11.84 95.0451 12.106 95.3251 12.498C95.6051 12.89 95.8711 13.324 96.1231 13.8C96.4031 14.276 96.6271 14.752 96.7951 15.228C96.9911 15.676 97.0891 16.012 97.0891 16.236ZM115.044 16.236C115.044 16.824 114.666 17.65 113.91 18.714C113.154 19.75 112.188 20.968 111.012 22.368C109.836 23.74 108.534 25.224 107.106 26.82C105.706 28.416 104.362 30.054 103.074 31.734C102.934 31.958 102.85 32.14 102.822 32.28C102.822 32.392 102.962 32.448 103.242 32.448C104.026 32.448 104.88 32.336 105.804 32.112C106.756 31.888 107.638 31.776 108.45 31.776C109.01 31.776 109.486 32.014 109.878 32.49C110.298 32.938 110.508 33.428 110.508 33.96C110.508 34.184 110.438 34.534 110.298 35.01C110.186 35.486 109.99 35.976 109.71 36.48C109.458 36.956 109.122 37.39 108.702 37.782C108.31 38.146 107.848 38.328 107.316 38.328C106.672 38.328 105.874 38.286 104.922 38.202C103.998 38.09 102.92 38.104 101.688 38.244C101.212 38.3 100.722 38.398 100.218 38.538C99.7138 38.65 99.2098 38.776 98.7058 38.916C98.2018 39.056 97.6978 39.168 97.1938 39.252C96.7178 39.364 96.2698 39.42 95.8498 39.42C95.4018 39.42 95.0658 39.294 94.8418 39.042C94.7018 38.874 94.5198 38.622 94.2958 38.286C94.0438 37.922 93.8058 37.544 93.5818 37.152C93.3298 36.732 93.1198 36.326 92.9518 35.934C92.7838 35.542 92.6998 35.22 92.6998 34.968C92.6998 34.576 93.0078 33.932 93.6238 33.036C94.2398 32.14 95.0098 31.132 95.9338 30.012C96.8578 28.864 97.8798 27.674 98.9998 26.442C100.12 25.182 101.184 24.02 102.192 22.956C103.2 21.864 104.082 20.912 104.838 20.1C105.622 19.288 106.126 18.742 106.35 18.462C106.686 18.07 106.616 17.874 106.14 17.874C105.888 17.874 105.524 17.944 105.048 18.084C104.572 18.196 104.082 18.336 103.578 18.504C103.102 18.672 102.654 18.826 102.234 18.966C101.814 19.078 101.534 19.134 101.394 19.134C101.142 19.134 100.89 18.938 100.638 18.546C100.386 18.126 100.162 17.65 99.9658 17.118C99.7698 16.558 99.6018 16.026 99.4618 15.522C99.3498 14.99 99.2938 14.612 99.2938 14.388C99.2938 13.996 99.3638 13.716 99.5038 13.548C99.6438 13.324 99.9938 13.114 100.554 12.918C101.142 12.694 101.828 12.512 102.612 12.372C103.396 12.204 104.236 12.064 105.132 11.952C106.056 11.84 106.938 11.756 107.778 11.7C108.618 11.616 109.36 11.56 110.004 11.532C110.676 11.476 111.166 11.448 111.474 11.448C111.698 11.448 111.908 11.462 112.104 11.49C112.3 11.518 112.468 11.588 112.608 11.7C112.776 11.84 113 12.106 113.28 12.498C113.56 12.89 113.826 13.324 114.078 13.8C114.358 14.276 114.582 14.752 114.75 15.228C114.946 15.676 115.044 16.012 115.044 16.236ZM132.999 16.236C132.999 16.824 132.621 17.65 131.865 18.714C131.109 19.75 130.143 20.968 128.967 22.368C127.791 23.74 126.489 25.224 125.061 26.82C123.661 28.416 122.317 30.054 121.029 31.734C120.889 31.958 120.805 32.14 120.777 32.28C120.777 32.392 120.917 32.448 121.197 32.448C121.981 32.448 122.835 32.336 123.759 32.112C124.711 31.888 125.593 31.776 126.405 31.776C126.965 31.776 127.441 32.014 127.833 32.49C128.253 32.938 128.463 33.428 128.463 33.96C128.463 34.184 128.393 34.534 128.253 35.01C128.141 35.486 127.945 35.976 127.665 36.48C127.413 36.956 127.077 37.39 126.657 37.782C126.265 38.146 125.803 38.328 125.271 38.328C124.627 38.328 123.829 38.286 122.877 38.202C121.953 38.09 120.875 38.104 119.643 38.244C119.167 38.3 118.677 38.398 118.173 38.538C117.669 38.65 117.165 38.776 116.661 38.916C116.157 39.056 115.653 39.168 115.149 39.252C114.673 39.364 114.225 39.42 113.805 39.42C113.357 39.42 113.021 39.294 112.797 39.042C112.657 38.874 112.475 38.622 112.251 38.286C111.999 37.922 111.761 37.544 111.537 37.152C111.285 36.732 111.075 36.326 110.907 35.934C110.739 35.542 110.655 35.22 110.655 34.968C110.655 34.576 110.963 33.932 111.579 33.036C112.195 32.14 112.965 31.132 113.889 30.012C114.813 28.864 115.835 27.674 116.955 26.442C118.075 25.182 119.139 24.02 120.147 22.956C121.155 21.864 122.037 20.912 122.793 20.1C123.577 19.288 124.081 18.742 124.305 18.462C124.641 18.07 124.571 17.874 124.095 17.874C123.843 17.874 123.479 17.944 123.003 18.084C122.527 18.196 122.037 18.336 121.533 18.504C121.057 18.672 120.609 18.826 120.189 18.966C119.769 19.078 119.489 19.134 119.349 19.134C119.097 19.134 118.845 18.938 118.593 18.546C118.341 18.126 118.117 17.65 117.921 17.118C117.725 16.558 117.557 16.026 117.417 15.522C117.305 14.99 117.249 14.612 117.249 14.388C117.249 13.996 117.319 13.716 117.459 13.548C117.599 13.324 117.949 13.114 118.509 12.918C119.097 12.694 119.783 12.512 120.567 12.372C121.351 12.204 122.191 12.064 123.087 11.952C124.011 11.84 124.893 11.756 125.733 11.7C126.573 11.616 127.315 11.56 127.959 11.532C128.631 11.476 129.121 11.448 129.429 11.448C129.653 11.448 129.863 11.462 130.059 11.49C130.255 11.518 130.423 11.588 130.563 11.7C130.731 11.84 130.955 12.106 131.235 12.498C131.515 12.89 131.781 13.324 132.033 13.8C132.313 14.276 132.537 14.752 132.705 15.228C132.901 15.676 132.999 16.012 132.999 16.236Z" fill="#F8E71C"/>
<path fill-rule="evenodd" clip-rule="evenodd" d="M151.5 27C158.956 27 165 20.9558 165 13.5C165 6.04416 158.956 0 151.5 0C144.044 0 138 6.04416 138 13.5C138 20.9558 144.044 27 151.5 27Z" fill="white"/>
<path d="M151.88 11.28C151.88 11.5467 151.8 11.9 151.64 12.34C151.493 12.78 151.293 13.2533 151.04 13.76C150.787 14.2667 150.493 14.78 150.16 15.3C149.827 15.8067 149.48 16.2733 149.12 16.7C148.773 17.1133 148.42 17.4533 148.06 17.72C147.7 17.9867 147.367 18.12 147.06 18.12C146.873 18.12 146.707 18.08 146.56 18C146.413 17.9333 146.28 17.84 146.16 17.72C146.04 17.6 145.933 17.4667 145.84 17.32C145.747 17.1733 145.66 17.0267 145.58 16.88C145.473 16.6133 145.36 16.6133 145.24 16.88C145.187 16.9867 145.107 17.1467 145 17.36C144.907 17.56 144.827 17.7133 144.76 17.82C144.653 17.9667 144.54 18.0267 144.42 18C144.313 17.96 144.193 17.9067 144.06 17.84C143.9 17.76 143.727 17.6533 143.54 17.52C143.353 17.3733 143.173 17.2133 143 17.04C142.827 16.8533 142.687 16.66 142.58 16.46C142.46 16.26 142.4 16.06 142.4 15.86C142.4 15.7667 142.48 15.52 142.64 15.12C142.8 14.72 143.007 14.2267 143.26 13.64C143.513 13.04 143.793 12.3733 144.1 11.64C144.42 10.9067 144.727 10.16 145.02 9.4C145.313 8.64 145.587 7.89333 145.84 7.16C146.093 6.42667 146.28 5.76 146.4 5.16C146.467 4.8 146.527 4.54667 146.58 4.4C146.647 4.25333 146.787 4.18 147 4.18C147.107 4.18 147.287 4.23333 147.54 4.34C147.793 4.43333 148.047 4.56 148.3 4.72C148.567 4.88 148.8 5.05333 149 5.24C149.2 5.42667 149.3 5.60667 149.3 5.78C149.3 6.16667 149.2 6.62667 149 7.16C148.8 7.68 148.607 8.18 148.42 8.66C148.367 8.76667 148.36 8.84 148.4 8.88C148.453 8.92 148.52 8.90667 148.6 8.84C148.84 8.66667 149.053 8.52 149.24 8.4C149.44 8.28 149.68 8.22 149.96 8.22C150.213 8.22 150.453 8.34 150.68 8.58C150.92 8.82 151.127 9.10667 151.3 9.44C151.487 9.76 151.627 10.0933 151.72 10.44C151.827 10.7867 151.88 11.0667 151.88 11.28ZM148.9 11.76C148.9 11.5867 148.86 11.4733 148.78 11.42C148.713 11.3533 148.62 11.32 148.5 11.32C148.433 11.32 148.34 11.34 148.22 11.38C148.113 11.42 148 11.4733 147.88 11.54C147.76 11.5933 147.647 11.66 147.54 11.74C147.447 11.8067 147.38 11.8733 147.34 11.94C147.233 12.1267 147.12 12.3467 147 12.6C146.88 12.84 146.76 13.0933 146.64 13.36C146.52 13.6133 146.407 13.8667 146.3 14.12C146.193 14.3733 146.093 14.6067 146 14.82C145.947 14.94 145.96 15.0133 146.04 15.04C146.133 15.0667 146.207 15.08 146.26 15.08C146.46 15.08 146.707 14.9467 147 14.68C147.307 14.4133 147.6 14.1 147.88 13.74C148.16 13.3667 148.4 12.9933 148.6 12.62C148.8 12.2467 148.9 11.96 148.9 11.76ZM160.528 10.58C160.528 10.9267 160.448 11.34 160.288 11.82C160.141 12.2867 159.941 12.7867 159.688 13.32C159.448 13.84 159.168 14.3733 158.848 14.92C158.541 15.4533 158.228 15.9667 157.908 16.46C157.601 16.94 157.308 17.38 157.028 17.78C156.748 18.18 156.508 18.5 156.308 18.74C156.041 19.0733 155.708 19.4467 155.308 19.86C154.908 20.2867 154.501 20.6867 154.088 21.06C153.674 21.4333 153.288 21.7467 152.928 22C152.568 22.2667 152.294 22.4 152.108 22.4C151.854 22.4 151.621 22.2867 151.408 22.06C151.328 21.98 151.228 21.86 151.108 21.7C150.988 21.5533 150.874 21.3933 150.768 21.22C150.648 21.06 150.548 20.9 150.468 20.74C150.374 20.58 150.328 20.44 150.328 20.32C150.328 20.2133 150.354 20.1267 150.408 20.06C150.448 20.0067 150.521 19.9467 150.628 19.88C150.668 19.8533 150.774 19.7867 150.948 19.68C151.108 19.5733 151.301 19.44 151.528 19.28C151.754 19.1333 151.988 18.9667 152.228 18.78C152.481 18.6067 152.708 18.4333 152.908 18.26C153.121 18.0867 153.294 17.92 153.428 17.76C153.561 17.5867 153.628 17.4467 153.628 17.34C153.628 17.26 153.568 17.18 153.448 17.1C153.328 17.0067 153.194 16.9067 153.048 16.8C152.914 16.6933 152.788 16.5733 152.668 16.44C152.561 16.3067 152.508 16.14 152.508 15.94C152.508 15.74 152.521 15.44 152.548 15.04C152.588 14.64 152.634 14.1867 152.688 13.68C152.754 13.1733 152.821 12.6467 152.888 12.1C152.968 11.5533 153.054 11.04 153.148 10.56C153.241 10.0667 153.334 9.64 153.428 9.28C153.521 8.90667 153.614 8.64667 153.708 8.5C153.841 8.31333 154.021 8.22 154.248 8.22C154.301 8.22 154.454 8.28 154.708 8.4C154.961 8.50667 155.221 8.64 155.488 8.8C155.768 8.96 156.014 9.13333 156.228 9.32C156.454 9.49333 156.568 9.64667 156.568 9.78C156.568 9.98 156.521 10.2733 156.428 10.66C156.334 11.0467 156.228 11.4667 156.108 11.92C155.988 12.3733 155.868 12.8333 155.748 13.3C155.628 13.7533 155.541 14.16 155.488 14.52C155.448 14.7867 155.461 14.9333 155.528 14.96C155.594 14.9867 155.694 14.8867 155.828 14.66C156.374 13.6867 156.854 12.6933 157.268 11.68C157.681 10.6533 157.981 9.75333 158.168 8.98C158.208 8.82 158.248 8.7 158.288 8.62C158.341 8.54 158.421 8.5 158.528 8.5C158.794 8.51333 159.048 8.58 159.288 8.7C159.541 8.80667 159.754 8.96 159.928 9.16C160.114 9.34667 160.261 9.56667 160.368 9.82C160.474 10.06 160.528 10.3133 160.528 10.58Z" fill="#6E52DD"/>
</svg>
