<svg width="87" height="12" viewBox="0 0 87 12" fill="none" xmlns="http://www.w3.org/2000/svg">
<path fill-rule="evenodd" clip-rule="evenodd" d="M6.49998 9.75L2.67938 11.7586L3.40905 7.50431L0.318115 4.49139L4.58968 3.87069L6.49998 0L8.41028 3.87069L12.6818 4.49139L9.59092 7.50431L10.3206 11.7586L6.49998 9.75Z" fill="#e6e6e6"/>
<path fill-rule="evenodd" clip-rule="evenodd" d="M25.5 9.75L21.6794 11.7586L22.409 7.50431L19.3181 4.49139L23.5897 3.87069L25.5 0L27.4103 3.87069L31.6818 4.49139L28.5909 7.50431L29.3206 11.7586L25.5 9.75Z" fill="#e6e6e6"/>
<path fill-rule="evenodd" clip-rule="evenodd" d="M43.5 9.75L39.6794 11.7586L40.409 7.50431L37.3181 4.49139L41.5897 3.87069L43.5 0L45.4103 3.87069L49.6818 4.49139L46.5909 7.50431L47.3206 11.7586L43.5 9.75Z" fill="#e6e6e6"/>
<path fill-rule="evenodd" clip-rule="evenodd" d="M62.5 9.75L58.6794 11.7586L59.409 7.50431L56.3181 4.49139L60.5897 3.87069L62.5 0L64.4103 3.87069L68.6818 4.49139L65.5909 7.50431L66.3206 11.7586L62.5 9.75Z" fill="#e6e6e6"/>
<path fill-rule="evenodd" clip-rule="evenodd" d="M80.5 9.75L76.6794 11.7586L77.409 7.50431L74.3181 4.49139L78.5897 3.87069L80.5 0L82.4103 3.87069L86.6818 4.49139L83.5909 7.50431L84.3206 11.7586L80.5 9.75Z" fill="#e6e6e6"/>
</svg>
