<svg viewBox="0 0 100 14" width="100px" height="14px" xmlns="http://www.w3.org/2000/svg">
    <path fill="#e6e6e6" d="M11.3,14.2c-0.2,0-0.5-0.1-0.7-0.2l-3.2-2.4L4.2,14c-0.2,0.1-0.4,0.2-0.7,0.2
        c-0.2,0-0.5-0.1-0.7-0.2c-0.4-0.3-0.6-0.8-0.4-1.3L3.7,9L0.5,6.6C0.1,6.3-0.1,5.8,0.1,5.4c0.2-0.5,0.6-0.8,1.1-0.8c0,0,0,0,0,0l4,0
        l1.2-3.8C6.5,0.3,6.9,0,7.4,0c0.5,0,0.9,0.3,1.1,0.8l1.2,3.8l4,0c0,0,0,0,0,0c0.5,0,0.9,0.3,1.1,0.8c0.2,0.5,0,1-0.4,1.3L11.1,9
        l1.3,3.8c0.2,0.5,0,1-0.4,1.3C11.8,14.2,11.6,14.2,11.3,14.2L11.3,14.2z"/>
    <path fill="#e6e6e6" d="M32.9,14.2c-0.2,0-0.5-0.1-0.7-0.2L29,11.6L25.8,14c-0.2,0.1-0.4,0.2-0.7,0.2
        c-0.2,0-0.5-0.1-0.7-0.2c-0.4-0.3-0.6-0.8-0.4-1.3L25.3,9l-3.3-2.3c-0.4-0.3-0.6-0.8-0.4-1.3c0.2-0.5,0.6-0.8,1.1-0.8c0,0,0,0,0,0
        l4,0l1.2-3.8C28.1,0.3,28.5,0,29,0c0.5,0,0.9,0.3,1.1,0.8l1.2,3.8l4,0c0,0,0,0,0,0c0.5,0,0.9,0.3,1.1,0.8c0.2,0.5,0,1-0.4,1.3
        L32.7,9l1.3,3.8c0.2,0.5,0,1-0.4,1.3C33.4,14.2,33.1,14.2,32.9,14.2L32.9,14.2z"/>
    <path fill="#e6e6e6" d="M53.6,14.2c-0.2,0-0.5-0.1-0.7-0.2l-3.2-2.4L46.4,14c-0.2,0.1-0.4,0.2-0.7,0.2
        c-0.2,0-0.5-0.1-0.7-0.2c-0.4-0.3-0.6-0.8-0.4-1.3L46,9l-3.3-2.3c-0.4-0.3-0.6-0.8-0.4-1.3c0.2-0.5,0.6-0.8,1.1-0.8c0,0,0,0,0,0
        l4,0l1.2-3.8C48.7,0.3,49.2,0,49.7,0c0.5,0,0.9,0.3,1.1,0.8l1.2,3.8l4,0c0,0,0,0,0,0c0.5,0,0.9,0.3,1.1,0.8c0.2,0.5,0,1-0.4,1.3
        L53.4,9l1.3,3.8c0.2,0.5,0,1-0.4,1.3C54,14.2,53.8,14.2,53.6,14.2L53.6,14.2z"/>
    <path fill="#e6e6e6" d="M99.6,6.6L96.3,9l1.3,3.8c0.2,0.5,0,1-0.4,1.3c-0.2,0.1-0.4,0.2-0.7,0.2l0,0
        c-0.2,0-0.5-0.1-0.7-0.2l-3.2-2.4L89.4,14c-0.2,0.1-0.4,0.2-0.7,0.2c-0.2,0-0.5-0.1-0.7-0.2c-0.4-0.3-0.6-0.8-0.4-1.3L88.9,9
        l-3.3-2.3c-0.4-0.3-0.6-0.8-0.4-1.3c0.2-0.5,0.6-0.8,1.1-0.8c0,0,0,0,0,0l4,0l1.2-3.8C91.7,0.3,92.1,0,92.6,0
        c0.5,0,0.9,0.3,1.1,0.8l1.2,3.8l4,0c0,0,0,0,0,0c0.5,0,0.9,0.3,1.1,0.8"/>
    <path fill="#e6e6e6" d="M75.1,14.2c-0.2,0-0.5-0.1-0.7-0.2l-3.2-2.4L68,14c-0.2,0.1-0.4,0.2-0.7,0.2
        c-0.2,0-0.5-0.1-0.7-0.2c-0.4-0.3-0.6-0.8-0.4-1.3L67.6,9l-3.3-2.3c-0.4-0.3-0.6-0.8-0.4-1.3c0.2-0.5,0.6-0.8,1.1-0.8c0,0,0,0,0,0
        l4,0l1.2-3.8C70.3,0.3,70.8,0,71.2,0c0.5,0,0.9,0.3,1.1,0.8l1.2,3.8l4,0c0,0,0,0,0,0c0.5,0,0.9,0.3,1.1,0.8c0.2,0.5,0,1-0.4,1.3
            L74.9,9l1.3,3.8c0.2,0.5,0,1-0.4,1.3C75.6,14.2,75.4,14.2,75.1,14.2L75.1,14.2z"/>
</svg>