<svg width="129" height="16" viewBox="0 0 129 16" fill="none" xmlns="http://www.w3.org/2000/svg">
<path fill-rule="evenodd" clip-rule="evenodd" d="M8.5 13.2669L3.24671 16L4.25 10.2111L0 6.11146L5.87336 5.26687L8.5 0L11.1266 5.26687L17 6.11146L12.75 10.2111L13.7533 16L8.5 13.2669Z" fill="#8f77ed"/>
<path fill-rule="evenodd" clip-rule="evenodd" d="M36.5 13.2669L31.2467 16L32.25 10.2111L28 6.11146L33.8734 5.26687L36.5 0L39.1266 5.26687L45 6.11146L40.75 10.2111L41.7533 16L36.5 13.2669Z" fill="#8f77ed"/>
<path fill-rule="evenodd" clip-rule="evenodd" d="M64.5 13.2669L59.2467 16L60.25 10.2111L56 6.11146L61.8734 5.26687L64.5 0L67.1266 5.26687L73 6.11146L68.75 10.2111L69.7533 16L64.5 13.2669Z" fill="#8f77ed"/>
<path fill-rule="evenodd" clip-rule="evenodd" d="M92.5 13.2669L87.2467 16L88.25 10.2111L84 6.11146L89.8734 5.26687L92.5 0L95.1266 5.26687L101 6.11146L96.75 10.2111L97.7533 16L92.5 13.2669Z" fill="#8f77ed"/>
<path fill-rule="evenodd" clip-rule="evenodd" d="M120.5 13.2669L115.247 16L116.25 10.2111L112 6.11146L117.873 5.26687L120.5 0L123.127 5.26687L129 6.11146L124.75 10.2111L125.753 16L120.5 13.2669Z" fill="#8f77ed"/>
</svg>