<svg width="12" height="11" viewBox="0 0 12 11" fill="none" xmlns="http://www.w3.org/2000/svg">
<path d="M1.358 4.204C0.872667 3.756 0.63 3.182 0.63 2.482C0.63 1.782 0.868 1.21267 1.344 0.773999C1.83867 0.335333 2.45467 0.116 3.192 0.116C3.92933 0.116 4.54067 0.335333 5.026 0.773999C5.51133 1.20333 5.754 1.77267 5.754 2.482C5.754 3.182 5.51133 3.756 5.026 4.204C4.53133 4.64267 3.92 4.862 3.192 4.862C2.464 4.862 1.85267 4.64267 1.358 4.204ZM1.68 2.482C1.68 2.91133 1.82467 3.266 2.114 3.546C2.41267 3.81667 2.772 3.952 3.192 3.952C3.62133 3.952 3.98067 3.81667 4.27 3.546C4.55933 3.266 4.704 2.91133 4.704 2.482C4.704 2.062 4.55933 1.71667 4.27 1.446C3.98067 1.166 3.62133 1.026 3.192 1.026C2.76267 1.026 2.40333 1.166 2.114 1.446C1.82467 1.71667 1.68 2.062 1.68 2.482ZM7.252 9.426C6.76667 8.978 6.524 8.404 6.524 7.704C6.524 7.004 6.762 6.43467 7.238 5.996C7.73267 5.55733 8.34867 5.338 9.086 5.338C9.82333 5.338 10.4347 5.55733 10.92 5.996C11.4053 6.42533 11.648 6.99467 11.648 7.704C11.648 8.404 11.4053 8.978 10.92 9.426C10.4253 9.86467 9.814 10.084 9.086 10.084C8.358 10.084 7.74667 9.86467 7.252 9.426ZM7.574 7.704C7.574 8.13333 7.71867 8.488 8.008 8.768C8.30667 9.03867 8.666 9.174 9.086 9.174C9.51533 9.174 9.87467 9.03867 10.164 8.768C10.4533 8.488 10.598 8.13333 10.598 7.704C10.598 7.284 10.4533 6.93867 10.164 6.668C9.87467 6.388 9.51533 6.248 9.086 6.248C8.65667 6.248 8.29733 6.388 8.008 6.668C7.71867 6.93867 7.574 7.284 7.574 7.704ZM2.884 10.14L2.226 9.678L9.422 0.0599995L10.066 0.535999L2.884 10.14Z" fill="white"/>
</svg>
