<svg width="17" height="7" viewBox="0 0 17 7" fill="none" xmlns="http://www.w3.org/2000/svg">
<path d="M1.896 1.32H0.08V0.4H4.696V1.32H2.88V6H1.896V1.32ZM4.87563 3.2C4.87563 2.384 5.14763 1.69867 5.69162 1.144C6.24629 0.589333 6.94496 0.312 7.78763 0.312C8.63029 0.312 9.32629 0.578667 9.87563 1.112C10.4303 1.65067 10.7076 2.34667 10.7076 3.2C10.7076 4.03733 10.4303 4.728 9.87563 5.272C9.32096 5.816 8.62496 6.088 7.78763 6.088C6.94496 6.088 6.24896 5.82133 5.69963 5.288C5.15029 4.75467 4.87563 4.05867 4.87563 3.2ZM5.91563 3.2C5.91563 3.76533 6.09429 4.23467 6.45163 4.608C6.80896 4.98133 7.25429 5.168 7.78763 5.168C8.36363 5.168 8.81963 4.98133 9.15563 4.608C9.49696 4.23467 9.66763 3.76533 9.66763 3.2C9.66763 2.62933 9.48629 2.15733 9.12363 1.784C8.76096 1.416 8.31563 1.232 7.78763 1.232C7.24896 1.232 6.80096 1.416 6.44363 1.784C6.09163 2.152 5.91563 2.624 5.91563 3.2ZM16.3103 6H15.3263V1.32H12.8303V6H11.8463V0.4H16.3103V6Z" fill="white"/>
</svg>
