<svg width="54" height="19" viewBox="0 0 54 19" fill="none" xmlns="http://www.w3.org/2000/svg">
<path d="M18.55 3.675C18.55 3.90833 18.3833 4.4 18.05 5.15C17.7333 5.9 17.325 6.78333 16.825 7.8C16.3417 8.8 15.8 9.86667 15.2 11C14.6 12.1167 14.025 13.1667 13.475 14.15C12.925 15.1333 12.4333 15.975 12 16.675C11.5833 17.375 11.2917 17.8083 11.125 17.975C11.0417 18.0583 10.95 18.125 10.85 18.175C10.7667 18.225 10.6667 18.25 10.55 18.25C10.4 18.25 10.1833 18.1667 9.9 18C9.61667 17.8333 9.33333 17.6333 9.05 17.4C8.76667 17.15 8.51667 16.8917 8.3 16.625C8.1 16.3583 8 16.1333 8 15.95C8 15.55 8.01667 15.1167 8.05 14.65C8.08333 14.1833 8.125 13.7083 8.175 13.225C8.225 12.7417 8.28333 12.2667 8.35 11.8C8.43333 11.3167 8.51667 10.875 8.6 10.475C8.63333 10.2917 8.61667 10.1917 8.55 10.175C8.48333 10.1417 8.40833 10.2167 8.325 10.4C8.00833 10.95 7.74167 11.425 7.525 11.825C7.30833 12.2083 7.10833 12.5667 6.925 12.9C6.74167 13.2167 6.56667 13.5417 6.4 13.875C6.23333 14.1917 6.04167 14.5583 5.825 14.975C5.39167 15.8083 4.96667 16.5083 4.55 17.075C4.13333 17.6417 3.75 17.925 3.4 17.925C3.21667 17.925 2.975 17.8417 2.675 17.675C2.39167 17.5083 2.1 17.3083 1.8 17.075C1.51667 16.825 1.26667 16.575 1.05 16.325C0.85 16.075 0.75 15.8667 0.75 15.7C0.75 15.4167 0.783333 14.9583 0.85 14.325C0.916667 13.675 1 12.9333 1.1 12.1C1.21667 11.25 1.35 10.3417 1.5 9.375C1.65 8.40833 1.8 7.46667 1.95 6.55C2.1 5.61667 2.24167 4.75 2.375 3.95C2.525 3.13333 2.65833 2.45833 2.775 1.925C2.79167 1.825 2.85 1.73333 2.95 1.65C3.06667 1.56667 3.2 1.5 3.35 1.45C3.5 1.4 3.65833 1.35833 3.825 1.325C3.99167 1.29167 4.15 1.275 4.3 1.275C4.48333 1.275 4.725 1.33333 5.025 1.45C5.325 1.55 5.60833 1.69167 5.875 1.875C6.15833 2.04167 6.38333 2.23333 6.55 2.45C6.71667 2.66667 6.75833 2.875 6.675 3.075C6.45833 3.65833 6.24167 4.30833 6.025 5.025C5.825 5.74167 5.64167 6.45833 5.475 7.175C5.30833 7.875 5.16667 8.54167 5.05 9.175C4.93333 9.79167 4.85833 10.3 4.825 10.7C4.79167 10.9333 4.825 11.05 4.925 11.05C5.025 11.0333 5.19167 10.8417 5.425 10.475C5.50833 10.3417 5.64167 10.1 5.825 9.75C6.00833 9.4 6.20833 9 6.425 8.55C6.65833 8.1 6.89167 7.61667 7.125 7.1C7.375 6.58333 7.60833 6.08333 7.825 5.6C8.04167 5.11667 8.23333 4.68333 8.4 4.3C8.56667 3.9 8.675 3.59167 8.725 3.375C8.74167 3.325 8.76667 3.21667 8.8 3.05C8.83333 2.86667 8.88333 2.68333 8.95 2.5C9.03333 2.3 9.125 2.125 9.225 1.975C9.325 1.80833 9.44167 1.725 9.575 1.725C9.725 1.725 9.94167 1.79167 10.225 1.925C10.525 2.05833 10.825 2.225 11.125 2.425C11.425 2.625 11.6833 2.84167 11.9 3.075C12.1167 3.30833 12.225 3.51667 12.225 3.7C12.225 4.13333 12.1667 4.60833 12.05 5.125C11.9333 5.625 11.8333 6.09167 11.75 6.525C11.65 7.05833 11.5667 7.55 11.5 8C11.4333 8.45 11.3833 8.83333 11.35 9.15C11.3 9.53333 11.2667 9.86667 11.25 10.15C11.2 10.5333 11.2417 10.7417 11.375 10.775C11.5083 10.7917 11.6667 10.6 11.85 10.2C12.2 9.43333 12.5083 8.74167 12.775 8.125C13.0583 7.49167 13.3083 6.875 13.525 6.275C13.7583 5.65833 13.975 5.025 14.175 4.375C14.375 3.70833 14.575 2.95833 14.775 2.125C14.875 1.74167 15.2583 1.55 15.925 1.55C16.125 1.55 16.375 1.625 16.675 1.775C16.975 1.925 17.2583 2.10833 17.525 2.325C17.8083 2.54167 18.05 2.775 18.25 3.025C18.45 3.275 18.55 3.49167 18.55 3.675ZM28.6219 6.55C28.6219 7.26667 28.5219 8.05833 28.3219 8.925C28.1385 9.775 27.8635 10.6417 27.4969 11.525C27.1469 12.3917 26.7219 13.2333 26.2219 14.05C25.7219 14.85 25.1552 15.5667 24.5219 16.2C23.9052 16.8333 23.2302 17.3417 22.4969 17.725C21.7802 18.1083 21.0219 18.3 20.2219 18.3C19.7719 18.3 19.2969 18.15 18.7969 17.85C18.2969 17.55 17.8385 17.1833 17.4219 16.75C17.0219 16.3 16.6802 15.825 16.3969 15.325C16.1302 14.825 15.9969 14.3667 15.9969 13.95C15.9969 13.05 16.1219 12.0833 16.3719 11.05C16.6385 10 16.9969 8.96667 17.4469 7.95C17.8969 6.93333 18.4219 5.96667 19.0219 5.05C19.6385 4.11667 20.2969 3.30833 20.9969 2.625C21.1969 2.425 21.4052 2.23333 21.6219 2.05C21.8552 1.85 22.0885 1.675 22.3219 1.525C22.5552 1.375 22.7885 1.25833 23.0219 1.175C23.2719 1.075 23.5135 1.025 23.7469 1.025C23.9302 1.025 24.0885 1.10833 24.2219 1.275C24.3719 1.44167 24.5135 1.63333 24.6469 1.85C24.7802 2.05 24.9052 2.23333 25.0219 2.4C25.1552 2.56667 25.2969 2.65 25.4469 2.65C25.5969 2.65 25.7219 2.625 25.8219 2.575C25.9219 2.525 26.0135 2.46667 26.0969 2.4C26.1969 2.33333 26.2885 2.275 26.3719 2.225C26.4719 2.175 26.5885 2.15 26.7219 2.15C27.0552 2.15 27.3385 2.30833 27.5719 2.625C27.8219 2.94167 28.0219 3.33333 28.1719 3.8C28.3219 4.25 28.4302 4.73333 28.4969 5.25C28.5802 5.75 28.6219 6.18333 28.6219 6.55ZM24.4719 6.9C24.4719 6.81667 24.4635 6.71667 24.4469 6.6C24.4302 6.46667 24.3969 6.35 24.3469 6.25C24.3135 6.13333 24.2552 6.04167 24.1719 5.975C24.1052 5.89167 24.0135 5.85 23.8969 5.85C23.7302 5.85 23.5135 6.01667 23.2469 6.35C22.9969 6.68333 22.7219 7.11667 22.4219 7.65C22.1219 8.16667 21.8135 8.75 21.4969 9.4C21.1969 10.0333 20.9219 10.65 20.6719 11.25C20.4219 11.85 20.2135 12.3917 20.0469 12.875C19.8969 13.3583 19.8219 13.7167 19.8219 13.95C19.8219 14.1167 19.8719 14.25 19.9719 14.35C20.0719 14.4333 20.1719 14.475 20.2719 14.475C20.4552 14.475 20.6885 14.3167 20.9719 14C21.2552 13.6833 21.5469 13.2833 21.8469 12.8C22.1635 12.3167 22.4802 11.7833 22.7969 11.2C23.1135 10.6 23.3885 10.0167 23.6219 9.45C23.8719 8.88333 24.0719 8.375 24.2219 7.925C24.3885 7.45833 24.4719 7.11667 24.4719 6.9ZM45.8816 3.675C45.8816 3.90833 45.715 4.4 45.3816 5.15C45.065 5.9 44.6566 6.78333 44.1566 7.8C43.6733 8.8 43.1316 9.86667 42.5316 11C41.9316 12.1167 41.3566 13.1667 40.8066 14.15C40.2566 15.1333 39.765 15.975 39.3316 16.675C38.915 17.375 38.6233 17.8083 38.4566 17.975C38.3733 18.0583 38.2816 18.125 38.1816 18.175C38.0983 18.225 37.9983 18.25 37.8816 18.25C37.7316 18.25 37.515 18.1667 37.2316 18C36.9483 17.8333 36.665 17.6333 36.3816 17.4C36.0983 17.15 35.8483 16.8917 35.6316 16.625C35.4316 16.3583 35.3316 16.1333 35.3316 15.95C35.3316 15.55 35.3483 15.1167 35.3816 14.65C35.415 14.1833 35.4566 13.7083 35.5066 13.225C35.5566 12.7417 35.615 12.2667 35.6816 11.8C35.765 11.3167 35.8483 10.875 35.9316 10.475C35.965 10.2917 35.9483 10.1917 35.8816 10.175C35.815 10.1417 35.74 10.2167 35.6566 10.4C35.34 10.95 35.0733 11.425 34.8566 11.825C34.64 12.2083 34.44 12.5667 34.2566 12.9C34.0733 13.2167 33.8983 13.5417 33.7316 13.875C33.565 14.1917 33.3733 14.5583 33.1566 14.975C32.7233 15.8083 32.2983 16.5083 31.8816 17.075C31.465 17.6417 31.0816 17.925 30.7316 17.925C30.5483 17.925 30.3066 17.8417 30.0066 17.675C29.7233 17.5083 29.4316 17.3083 29.1316 17.075C28.8483 16.825 28.5983 16.575 28.3816 16.325C28.1816 16.075 28.0816 15.8667 28.0816 15.7C28.0816 15.4167 28.115 14.9583 28.1816 14.325C28.2483 13.675 28.3316 12.9333 28.4316 12.1C28.5483 11.25 28.6816 10.3417 28.8316 9.375C28.9816 8.40833 29.1316 7.46667 29.2816 6.55C29.4316 5.61667 29.5733 4.75 29.7066 3.95C29.8566 3.13333 29.99 2.45833 30.1066 1.925C30.1233 1.825 30.1816 1.73333 30.2816 1.65C30.3983 1.56667 30.5316 1.5 30.6816 1.45C30.8316 1.4 30.99 1.35833 31.1566 1.325C31.3233 1.29167 31.4816 1.275 31.6316 1.275C31.815 1.275 32.0566 1.33333 32.3566 1.45C32.6566 1.55 32.94 1.69167 33.2066 1.875C33.49 2.04167 33.715 2.23333 33.8816 2.45C34.0483 2.66667 34.09 2.875 34.0066 3.075C33.79 3.65833 33.5733 4.30833 33.3566 5.025C33.1566 5.74167 32.9733 6.45833 32.8066 7.175C32.64 7.875 32.4983 8.54167 32.3816 9.175C32.265 9.79167 32.19 10.3 32.1566 10.7C32.1233 10.9333 32.1566 11.05 32.2566 11.05C32.3566 11.0333 32.5233 10.8417 32.7566 10.475C32.84 10.3417 32.9733 10.1 33.1566 9.75C33.34 9.4 33.54 9 33.7566 8.55C33.99 8.1 34.2233 7.61667 34.4566 7.1C34.7066 6.58333 34.94 6.08333 35.1566 5.6C35.3733 5.11667 35.565 4.68333 35.7316 4.3C35.8983 3.9 36.0066 3.59167 36.0566 3.375C36.0733 3.325 36.0983 3.21667 36.1316 3.05C36.165 2.86667 36.215 2.68333 36.2816 2.5C36.365 2.3 36.4566 2.125 36.5566 1.975C36.6566 1.80833 36.7733 1.725 36.9066 1.725C37.0566 1.725 37.2733 1.79167 37.5566 1.925C37.8566 2.05833 38.1566 2.225 38.4566 2.425C38.7566 2.625 39.015 2.84167 39.2316 3.075C39.4483 3.30833 39.5566 3.51667 39.5566 3.7C39.5566 4.13333 39.4983 4.60833 39.3816 5.125C39.265 5.625 39.165 6.09167 39.0816 6.525C38.9816 7.05833 38.8983 7.55 38.8316 8C38.765 8.45 38.715 8.83333 38.6816 9.15C38.6316 9.53333 38.5983 9.86667 38.5816 10.15C38.5316 10.5333 38.5733 10.7417 38.7066 10.775C38.84 10.7917 38.9983 10.6 39.1816 10.2C39.5316 9.43333 39.84 8.74167 40.1066 8.125C40.39 7.49167 40.64 6.875 40.8566 6.275C41.09 5.65833 41.3066 5.025 41.5066 4.375C41.7066 3.70833 41.9066 2.95833 42.1066 2.125C42.2066 1.74167 42.59 1.55 43.2566 1.55C43.4566 1.55 43.7066 1.625 44.0066 1.775C44.3066 1.925 44.59 2.10833 44.8566 2.325C45.14 2.54167 45.3816 2.775 45.5816 3.025C45.7816 3.275 45.8816 3.49167 45.8816 3.675ZM53.2285 3.25C53.2452 3.38333 53.0952 3.725 52.7785 4.275C52.4619 4.825 52.0869 5.50833 51.6535 6.325C51.2369 7.125 50.8202 8.00833 50.4035 8.975C49.9869 9.94167 49.6869 10.9 49.5035 11.85C49.4202 12.2667 49.2952 12.5333 49.1285 12.65C48.9619 12.75 48.7535 12.7917 48.5035 12.775H48.4285C48.2785 12.675 48.0869 12.5417 47.8535 12.375C47.6369 12.1917 47.4202 12 47.2035 11.8C46.9869 11.5833 46.8035 11.3667 46.6535 11.15C46.5035 10.9333 46.4285 10.7333 46.4285 10.55C46.5619 10 46.7452 9.34167 46.9785 8.575C47.2285 7.79167 47.4952 6.98333 47.7785 6.15C48.0619 5.31667 48.3535 4.50833 48.6535 3.725C48.9702 2.94167 49.2702 2.25833 49.5535 1.675C49.6702 1.44167 49.7702 1.26667 49.8535 1.15C49.9369 1.03333 50.0869 0.958332 50.3035 0.924999C50.5202 0.924999 50.7952 1.01667 51.1285 1.2C51.4785 1.36667 51.8035 1.575 52.1035 1.825C52.4202 2.05833 52.6869 2.30833 52.9035 2.575C53.1202 2.84167 53.2285 3.06667 53.2285 3.25ZM48.4035 14.925C48.4035 15.025 48.3535 15.2 48.2535 15.45C48.1702 15.7 48.0619 15.975 47.9285 16.275C47.8119 16.5583 47.6952 16.85 47.5785 17.15C47.4619 17.4333 47.3952 17.6667 47.3785 17.85C47.3452 17.9833 47.2702 18.0667 47.1535 18.1C47.0535 18.15 46.9369 18.175 46.8035 18.175C46.6702 18.175 46.4702 18.1167 46.2035 18C45.9369 17.9 45.6619 17.7667 45.3785 17.6C45.1119 17.4167 44.8785 17.225 44.6785 17.025C44.4785 16.825 44.3785 16.6333 44.3785 16.45C44.3785 16.25 44.4035 15.9583 44.4535 15.575C44.5202 15.175 44.6119 14.7833 44.7285 14.4C44.8619 14.0167 45.0202 13.6833 45.2035 13.4C45.3869 13.1 45.5952 12.95 45.8285 12.95C45.9952 12.95 46.2202 13.0167 46.5035 13.15C46.8035 13.2833 47.0869 13.45 47.3535 13.65C47.6369 13.85 47.8785 14.0667 48.0785 14.3C48.2785 14.5167 48.3869 14.725 48.4035 14.925Z" fill="#EF4180"/>
</svg>
